<?xml version="1.0" encoding="UTF-8"?>
<svg version="1.1" xmlns="http://www.w3.org/2000/svg" width="512" height="512">
<path d="M0 0 C168.96 0 337.92 0 512 0 C512 168.63 512 337.26 512 511 C343.04 511 174.08 511 0 511 C0 342.37 0 173.74 0 0 Z " fill="#03A85F" transform="translate(0,1)"/>
<path d="M0 0 C0.66 0 1.32 0 2 0 C7.54218856 11.08437713 3.91503888 31.01477626 3.41552734 43.0322876 C2.9959308 53.53170951 3.02023314 63.98688743 3.2578125 74.4921875 C3.29989838 76.38834808 3.29989838 76.38834808 3.34283447 78.32281494 C3.49004167 84.70310876 3.66124164 91.0819691 3.85742188 97.4609375 C3.91829315 99.8255125 3.97885399 102.19009553 4.0390625 104.5546875 C4.09986496 106.19931473 4.09986496 106.19931473 4.16189575 107.87716675 C4.18533051 108.88949371 4.20876526 109.90182068 4.23291016 110.94482422 C4.26035309 111.82822479 4.28779602 112.71162537 4.31607056 113.62179565 C4 116 4 116 1 120 C1 100.53 1 81.06 1 61 C-12.798125 61.4640625 -12.798125 61.4640625 -26.875 61.9375 C-29.78038574 62.03281006 -32.68577148 62.12812012 -35.67919922 62.22631836 C-37.97104138 62.30545895 -40.2628717 62.38494358 -42.5546875 62.46484375 C-43.75359619 62.50291138 -44.95250488 62.540979 -46.18774414 62.5802002 C-47.32445557 62.62068481 -48.46116699 62.66116943 -49.63232422 62.70288086 C-50.62271698 62.73619003 -51.61310974 62.76949921 -52.6335144 62.80381775 C-55.01741897 62.85379699 -55.01741897 62.85379699 -57 64 C-56.690625 64.763125 -56.38125 65.52625 -56.0625 66.3125 C-54.48550163 70.30137823 -53.86361114 73.28598162 -53.875 77.5625 C-53.87242187 78.53316406 -53.86984375 79.50382812 -53.8671875 80.50390625 C-54 83 -54 83 -55 85 C-55.66 85 -56.32 85 -57 85 C-56.95359375 84.05898438 -56.9071875 83.11796875 -56.859375 82.1484375 C-56.30675218 74.44451227 -56.30675218 74.44451227 -58.625 67.3125 C-61.22507175 64.78085119 -63.73122801 63.52542693 -67 62 C-67.495 60.515 -67.495 60.515 -68 59 C-45.23 59 -22.46 59 1 59 C0.67 39.53 0.34 20.06 0 0 Z " fill="#019054" transform="translate(253,381)"/>
<path d="M0 0 C6.83277932 -0.43768693 11.58326856 -0.73964001 17 4 C17.8971875 4.7115625 17.8971875 4.7115625 18.8125 5.4375 C20.38342456 7.504506 20.53523451 9.47698735 21 12 C21.66 12.33 22.32 12.66 23 13 C11.45 13 -0.1 13 -12 13 C-10.93223255 8.72893021 -10.31749679 7.98642582 -7.125 5.25 C-6.42632812 4.63640625 -5.72765625 4.0228125 -5.0078125 3.390625 C-3 2 -3 2 0 2 C0 1.34 0 0.68 0 0 Z " fill="#059E67" transform="translate(380,499)"/>
<path d="M0 0 C0.86625 0.721875 1.7325 1.44375 2.625 2.1875 C3.49125 2.868125 3.49125 2.868125 4.375 3.5625 C5.625 5.1875 5.625 5.1875 7.625 11.1875 C-3.595 11.1875 -14.815 11.1875 -26.375 11.1875 C-26.045 10.1975 -25.715 9.2075 -25.375 8.1875 C-24.715 8.1875 -24.055 8.1875 -23.375 8.1875 C-23.1275 7.61 -22.88 7.0325 -22.625 6.4375 C-20.73911257 3.04290263 -18.56028306 0.8648046 -15.1875 -1.0625 C-9.6519545 -2.53864547 -5.11063744 -2.74460159 0 0 Z " fill="#059E67" transform="translate(99.375,500.8125)"/>
<path d="M0 0 C21.12 0 42.24 0 64 0 C64 0.66 64 1.32 64 2 C58.66153282 2.87549267 53.47103225 3.18859357 48.06640625 3.28125 C47.22963852 3.29965942 46.39287079 3.31806885 45.53074646 3.33703613 C42.87473045 3.39535195 40.21865327 3.44833983 37.5625 3.5 C34.06368274 3.56818567 30.56504198 3.64186569 27.06640625 3.71875 C25.88166466 3.73911316 25.88166466 3.73911316 24.67298889 3.7598877 C19.71562538 3.8692774 14.91124975 4.30991755 10 5 C11.30155006 9.07964281 11.30155006 9.07964281 13 13 C13.79608282 19.75533135 13.4188841 24.82839955 9.3671875 30.40234375 C7.71513795 32.33288166 6.28875272 33.85562364 4 35 C3.01 34.67 2.02 34.34 1 34 C1.48210937 33.60167969 1.96421875 33.20335937 2.4609375 32.79296875 C3.09257812 32.26316406 3.72421875 31.73335937 4.375 31.1875 C5.00148437 30.66542969 5.62796875 30.14335937 6.2734375 29.60546875 C8.82452305 27.23330549 9.93625662 25.55516036 10.3359375 22.07421875 C10.43557313 15.02666008 10.43557313 15.02666008 8.375 8.375 C5.77401251 5.77401251 3.39221767 4.38772541 0 3 C0 2.01 0 1.02 0 0 Z " fill="#009E4E" transform="translate(186,145)"/>
<path d="M0 0 C0.99 0.33 1.98 0.66 3 1 C3 21.13 3 41.26 3 62 C2.01 62.33 1.02 62.66 0 63 C-0.5878125 61.63875 -0.5878125 61.63875 -1.1875 60.25 C-3.40798082 56.26844818 -5.93860016 54.03069992 -10 52 C-15.93762696 51.37116782 -20.76467688 51.92039816 -26 55 C-28.24407254 58.03201925 -28.24407254 58.03201925 -30 61 C-31.485 61.495 -31.485 61.495 -33 62 C-31.125 57.25 -31.125 57.25 -30 55 C-29.34 55 -28.68 55 -28 55 C-28 54.34 -28 53.68 -28 53 C-27.34 53 -26.68 53 -26 53 C-26 52.34 -26 51.68 -26 51 C-20.37873816 48.43645751 -15.09039512 48.18848297 -9 49 C-6.00301237 50.34814327 -4.42176724 51.68831309 -2 54 C-2 54.66 -2 55.32 -2 56 C-1.34 56 -0.68 56 0 56 C0 37.52 0 19.04 0 0 Z " fill="#018E56" transform="translate(106,448)"/>
<path d="M0 0 C1.14952148 -0.00451172 2.29904297 -0.00902344 3.48339844 -0.01367188 C9.67717802 -0.0027062 15.6718307 0.30797325 21.8125 1.125 C21.4825 1.785 21.1525 2.445 20.8125 3.125 C19.56750732 3.15005615 18.32251465 3.1751123 17.03979492 3.20092773 C12.37483242 3.29583949 7.70999016 3.39584783 3.04516602 3.49731445 C1.03477817 3.54034929 -0.97563888 3.58204309 -2.98608398 3.62231445 C-5.89315558 3.68078796 -8.80008432 3.74425062 -11.70703125 3.80859375 C-13.03272881 3.83366249 -13.03272881 3.83366249 -14.38520813 3.85923767 C-20.68530066 4.00533971 -26.91881109 4.48629773 -33.1875 5.125 C-32.72730469 6.02992188 -32.72730469 6.02992188 -32.2578125 6.953125 C-29.34427902 12.86525864 -27.75682721 18.87164846 -29.91015625 25.2734375 C-32.41720017 30.73412427 -35.4326701 33.90063116 -41 36.375 C-41.721875 36.6225 -42.44375 36.87 -43.1875 37.125 C-43.1875 36.135 -43.1875 35.145 -43.1875 34.125 C-42.094375 33.5475 -41.00125 32.97 -39.875 32.375 C-35.68819752 29.98133313 -33.72663351 27.74240054 -32.1875 23.125 C-31.62252672 17.42094285 -31.92365599 13.02076602 -35.1875 8.125 C-37.62630405 5.92220924 -40.2151486 4.50502029 -43.1875 3.125 C-43.1875 2.465 -43.1875 1.805 -43.1875 1.125 C-28.79049512 0.50335624 -14.41133591 0.02317556 0 0 Z " fill="#00954F" transform="translate(81.1875,291.875)"/>
<path d="M0 0 C2.00720923 0.28674418 4.0085944 0.61866701 6 1 C6 2.32 6 3.64 6 5 C4.68 5 3.36 5 2 5 C2 5.66 2 6.32 2 7 C1.21625 7.433125 0.4325 7.86625 -0.375 8.3125 C-3.46683583 10.30010875 -3.76623603 11.65121208 -5 15 C-5.99 15.33 -6.98 15.66 -8 16 C-7.67 15.0925 -7.34 14.185 -7 13.25 C-5.80394277 9.92954193 -5.80394277 9.92954193 -6 6 C-16.68878038 4.71985951 -27.43810507 4.66385168 -38.1875 4.4375 C-40.11263792 4.39422208 -42.03776826 4.35060513 -43.96289062 4.30664062 C-48.64184869 4.20051632 -53.32088571 4.09898677 -58 4 C-58 3.34 -58 2.68 -58 2 C-50.89678322 1.14207422 -43.92768844 0.87653739 -36.77734375 0.9375 C-35.75065079 0.94128662 -34.72395782 0.94507324 -33.66615295 0.94897461 C-30.42322366 0.96108564 -27.18038796 0.97973949 -23.9375 1 C-19.63411737 1.02649594 -15.33077664 1.04649396 -11.02734375 1.0625 C-9.54004005 1.07494751 -9.54004005 1.07494751 -8.02268982 1.08764648 C-6.65975548 1.09260132 -6.65975548 1.09260132 -5.26928711 1.09765625 C-4.46671982 1.10289307 -3.66415253 1.10812988 -2.83726501 1.11352539 C-0.98168313 1.2024003 -0.98168313 1.2024003 0 0 Z " fill="#00954F" transform="translate(319,291)"/>
<path d="M0 0 C0.66 0.33 1.32 0.66 2 1 C2 22.12 2 43.24 2 65 C0.68 65 -0.64 65 -2 65 C-2.4125 64.071875 -2.825 63.14375 -3.25 62.1875 C-5.56104487 57.97809685 -7.49701732 56.50099423 -12 55 C-17.67477581 54.56347878 -21.00219902 55.59721107 -26 58 C-27.485 58.495 -27.485 58.495 -29 59 C-30.22520264 62.00847418 -30.22520264 62.00847418 -31 65 C-31.66 64.67 -32.32 64.34 -33 64 C-31.60991124 58.74855359 -28.1957125 56.12699328 -24 53 C-20.30769694 51.15384847 -16.03842104 51.65207449 -12 52 C-7.35732742 53.71950836 -5.61510151 55.38489849 -2 59 C-1.34 39.53 -0.68 20.06 0 0 Z " fill="#019D50" transform="translate(402,150)"/>
<path d="M0 0 C0.66 0.33 1.32 0.66 2 1 C2 19.81 2 38.62 2 58 C1.01 58.495 1.01 58.495 0 59 C-2 58 -2 58 -3.375 55.125 C-5.0719957 51.86154673 -5.86944116 50.79114188 -9 49 C-14.68566543 48.23962788 -21.68877975 47.52220312 -26.6875 50.8125 C-27.450625 51.534375 -28.21375 52.25625 -29 53 C-29.61875 53.5775 -30.2375 54.155 -30.875 54.75 C-31.24625 55.1625 -31.6175 55.575 -32 56 C-32 53 -32 53 -30.3203125 51.2109375 C-29.59585938 50.60507813 -28.87140625 49.99921875 -28.125 49.375 C-27.40570313 48.76398438 -26.68640625 48.15296875 -25.9453125 47.5234375 C-21.64441405 44.15526402 -17.28380985 44.42919426 -12 45 C-7.42325412 46.54858068 -4.41951924 48.58048076 -1 52 C-0.67 34.84 -0.34 17.68 0 0 Z " fill="#009D50" transform="translate(107,157)"/>
<path d="M0 0 C0.33 0 0.66 0 1 0 C1.76897816 8.56851259 2.13913164 17.04342453 2.09765625 25.64453125 C2.0962413 26.78033127 2.09482635 27.91613129 2.09336853 29.08634949 C2.08783677 32.66176148 2.07529772 36.2371074 2.0625 39.8125 C2.05747616 42.25846263 2.05291481 44.70442625 2.04882812 47.15039062 C2.03788983 53.1002824 2.0212215 59.05013648 2 65 C1.01 65.33 0.02 65.66 -1 66 C-1.433125 65.071875 -1.86625 64.14375 -2.3125 63.1875 C-4.57955261 58.90528952 -6.56624036 56.88377353 -11 55 C-13.81496741 54.54724722 -13.81496741 54.54724722 -16.75 54.375 C-17.73484375 54.30023438 -18.7196875 54.22546875 -19.734375 54.1484375 C-20.48203125 54.09945312 -21.2296875 54.05046875 -22 54 C-22 54.66 -22 55.32 -22 56 C-23.65848177 57.01351664 -25.32665961 58.01120795 -27 59 C-27.721875 59.721875 -28.44375 60.44375 -29.1875 61.1875 C-29.785625 61.785625 -30.38375 62.38375 -31 63 C-31.66 63 -32.32 63 -33 63 C-31.52307692 58.32307692 -31.52307692 58.32307692 -28.875 56.6875 C-28.25625 56.460625 -27.6375 56.23375 -27 56 C-27 55.34 -27 54.68 -27 54 C-21.79572861 50.84704726 -15.87079884 51.27952529 -10 52 C-6.49609017 53.55280353 -3.75932017 55.48135966 -2 59 C-1.28690074 55.11611395 -0.86077188 51.40037805 -0.79467773 47.45361328 C-0.77473251 46.39296661 -0.75478729 45.33231995 -0.73423767 44.23953247 C-0.71752518 43.11118988 -0.70081268 41.98284729 -0.68359375 40.8203125 C-0.66281265 39.6524118 -0.64203156 38.48451111 -0.62062073 37.28121948 C-0.55540825 33.56253762 -0.49637199 29.84378711 -0.4375 26.125 C-0.39428787 23.59895133 -0.35067272 21.07290951 -0.30664062 18.546875 C-0.19975592 12.36465522 -0.09793764 6.18236764 0 0 Z " fill="#018F57" transform="translate(402,445)"/>
<path d="M0 0 C0.99 0.33 1.98 0.66 3 1 C4.08998917 8.03024156 4.12863811 14.92615822 4.09765625 22.03125 C4.0962413 23.26290894 4.09482635 24.49456787 4.09336853 25.7635498 C4.08779612 29.67572516 4.07524867 33.58784211 4.0625 37.5 C4.05691482 40.1614575 4.05291916 42.82291444 4.04882812 45.484375 C4.03783572 51.98960307 4.02112514 58.49479736 4 65 C3.01 65.495 3.01 65.495 2 66 C1.9845388 65.12795677 1.9845388 65.12795677 1.96876526 64.23829651 C1.86007521 58.15428834 1.74553334 52.07040978 1.62768555 45.98657227 C1.5845358 43.71999845 1.54284784 41.4533963 1.50268555 39.18676758 C1.4444963 35.91739381 1.3809453 32.6481601 1.31640625 29.37890625 C1.29969376 28.37541641 1.28298126 27.37192657 1.26576233 26.33802795 C1.14444361 20.49681183 0.73474518 14.79690417 0 9 C-2.31218128 10.13632841 -4.52893801 11.31255428 -6.75 12.625 C-10.8362213 14.35378593 -13.59940452 14.22761701 -18 14 C-18.33 13.34 -18.66 12.68 -19 12 C-18.34773438 11.97421875 -17.69546875 11.9484375 -17.0234375 11.921875 C-11.32553098 11.55209936 -7.34893302 11.03071841 -3 7 C-1.69669931 4.69072958 -0.87409618 2.52516675 0 0 Z " fill="#019A51" transform="translate(105,224)"/>
<path d="M0 0 C-0.0625 1.75 -0.0625 1.75 -1 4 C-2.11375 4.53625 -3.2275 5.0725 -4.375 5.625 C-6.9303429 6.93932596 -7.84296861 7.66967326 -9.09375 10.30078125 C-9.8516683 12.85875552 -10.47608033 15.38443178 -11 18 C-11.28230469 19.39412109 -11.28230469 19.39412109 -11.5703125 20.81640625 C-11.71210938 21.53699219 -11.85390625 22.25757813 -12 23 C-14 21 -14 21 -14.3125 17.75 C-13.87839568 12.54074818 -11.85471402 9.28207103 -9 5 C-11.81369094 4.06210302 -13.643105 3.85068018 -16.56323242 3.79467773 C-17.94432442 3.7647599 -17.94432442 3.7647599 -19.35331726 3.73423767 C-20.34402725 3.71752518 -21.33473724 3.70081268 -22.35546875 3.68359375 C-23.88062859 3.6524221 -23.88062859 3.6524221 -25.43659973 3.62062073 C-28.68683063 3.55519952 -31.93714277 3.49627463 -35.1875 3.4375 C-37.38998238 3.39430773 -39.59245653 3.35069321 -41.79492188 3.30664062 C-47.19652853 3.19952573 -52.59821612 3.09774543 -58 3 C-58 2.67 -58 2.34 -58 2 C-46.12 1.67 -34.24 1.34 -22 1 C-22 0.67 -22 0.34 -22 0 C-5.17647059 -2.58823529 -5.17647059 -2.58823529 0 0 Z " fill="#019256" transform="translate(472,440)"/>
<path d="M0 0 C3.40652614 1.13550871 4.49523872 2.49523872 7 5 C8.36125 5.804375 8.36125 5.804375 9.75 6.625 C10.4925 7.07875 11.235 7.5325 12 8 C12 8.66 12 9.32 12 10 C-9.78 10 -31.56 10 -54 10 C-54 9.34 -54 8.68 -54 8 C-46.79319466 7.09913392 -39.77767247 6.92464669 -32.5234375 7.12109375 C-31.47217682 7.14470474 -30.42091614 7.16831573 -29.33779907 7.19264221 C-26.01670251 7.26853542 -22.69588435 7.35287459 -19.375 7.4375 C-17.10808604 7.49079532 -14.84115894 7.54353505 -12.57421875 7.59570312 C-7.04930661 7.72404852 -1.52462767 7.85996317 4 8 C2.68 5.36 1.36 2.72 0 0 Z " fill="#019054" transform="translate(313,432)"/>
<path d="M0 0 C1.485 0.99 1.485 0.99 3 2 C5.24173003 2.2892245 5.24173003 2.2892245 7.74682617 2.22705078 C8.70759567 2.22689972 9.66836517 2.22674866 10.6582489 2.22659302 C11.69270645 2.21627045 12.727164 2.20594788 13.79296875 2.1953125 C14.85413406 2.1924826 15.91529938 2.18965271 17.00862122 2.18673706 C20.40169497 2.17553184 23.79450587 2.15042647 27.1875 2.125 C29.48632432 2.11497065 31.78515276 2.10584472 34.08398438 2.09765625 C39.72274611 2.07559141 45.36135428 2.04211044 51 2 C50.67 2.99 50.34 3.98 50 5 C43.70120703 5.05082181 37.4024672 5.08578472 31.10351562 5.10986328 C28.96189396 5.11990416 26.82028595 5.13353954 24.67871094 5.15087891 C21.59566879 5.17521118 18.51280835 5.18650242 15.4296875 5.1953125 C14.47633514 5.20563507 13.52298279 5.21595764 12.54074097 5.22659302 C7.61542052 5.22741927 3.61988672 4.9434458 -1 3 C-0.67 2.01 -0.34 1.02 0 0 Z " fill="#009E4D" transform="translate(402,143)"/>
<path d="M0 0 C0.66 0 1.32 0 2 0 C3.2123249 1.50721474 4.423656 3.01526829 5.625 4.53125 C7.48250335 6.51540131 9.4163534 7.26181526 12 8 C12 8.66 12 9.32 12 10 C-9.78 10 -31.56 10 -54 10 C-50.191252 8.095626 -48.96533348 7.75058264 -44.94360352 7.75708008 C-43.93898575 7.75400345 -42.93436798 7.75092682 -41.89930725 7.74775696 C-40.82007492 7.75494247 -39.74084259 7.76212799 -38.62890625 7.76953125 C-37.51442612 7.76998947 -36.39994598 7.77044769 -35.25169373 7.7709198 C-32.89556819 7.7739398 -30.53944461 7.78181855 -28.18334961 7.79418945 C-24.57984324 7.8124123 -20.97659446 7.81469929 -17.37304688 7.81445312 C-15.08333112 7.81936988 -12.7936171 7.82519888 -10.50390625 7.83203125 C-8.8880941 7.83370049 -8.8880941 7.83370049 -7.23963928 7.83540344 C-6.23186935 7.84178329 -5.22409943 7.84816315 -4.18579102 7.85473633 C-2.86152855 7.86045403 -2.86152855 7.86045403 -1.51051331 7.86628723 C1.07670914 8.00408562 3.47553836 8.43043426 6 9 C5.566875 8.43410156 5.13375 7.86820312 4.6875 7.28515625 C4.130625 6.55167969 3.57375 5.81820313 3 5.0625 C2.443125 4.33160156 1.88625 3.60070312 1.3125 2.84765625 C0 1 0 1 0 0 Z " fill="#019852" transform="translate(165,284)"/>
<path d="M0 0 C0.495 1.485 0.495 1.485 1 3 C0.37351563 3.30292969 -0.25296875 3.60585938 -0.8984375 3.91796875 C-6.07493961 6.43358882 -6.07493961 6.43358882 -9.5625 10.8125 C-9.706875 11.534375 -9.85125 12.25625 -10 13 C-10.99 13 -11.98 13 -13 13 C-12.690625 12.236875 -12.38125 11.47375 -12.0625 10.6875 C-11.32106407 8.81210323 -10.63771783 6.91315348 -10 5 C-12.76170144 4.07943285 -14.52178855 3.85199851 -17.37963867 3.79467773 C-18.70066841 3.7647599 -18.70066841 3.7647599 -20.04838562 3.73423767 C-20.99534805 3.71752518 -21.94231049 3.70081268 -22.91796875 3.68359375 C-23.89034988 3.66281265 -24.86273102 3.64203156 -25.86457825 3.62062073 C-28.97214665 3.55521252 -32.07979985 3.49628071 -35.1875 3.4375 C-37.29362858 3.39430649 -39.39974856 3.35069193 -41.50585938 3.30664062 C-46.67048591 3.19954001 -51.83519778 3.09824781 -57 3 C-57 2.67 -57 2.34 -57 2 C-44.79 1.67 -32.58 1.34 -20 1 C-20 0.67 -20 0.34 -20 0 C-17.79245484 -0.19656224 -15.58390461 -0.38185459 -13.375 -0.5625 C-12.14523438 -0.66691406 -10.91546875 -0.77132813 -9.6484375 -0.87890625 C-6.24372538 -0.99191061 -3.32441602 -0.69045563 0 0 Z " fill="#019256" transform="translate(177,440)"/>
<path d="M0 0 C13.53 0 27.06 0 41 0 C41.495 1.485 41.495 1.485 42 3 C27.81 3 13.62 3 -1 3 C-0.67 2.01 -0.34 1.02 0 0 Z " fill="#009E4C" transform="translate(114,145)"/>
<path d="M0 0 C0.99 0.33 1.98 0.66 3 1 C3.07420027 6.48092694 3.1286258 11.96156099 3.16479492 17.44287109 C3.17987414 19.30718072 3.20034061 21.17145492 3.22631836 23.03564453 C3.26273996 25.71656033 3.2797349 28.3970068 3.29296875 31.078125 C3.30845261 31.91055725 3.32393646 32.7429895 3.33988953 33.60064697 C3.34011612 34.38115417 3.34034271 35.16166138 3.34057617 35.96582031 C3.34723801 36.64976868 3.35389984 37.33371704 3.36076355 38.03839111 C3 40 3 40 0 44 C0 29.48 0 14.96 0 0 Z " fill="#04975D" transform="translate(106,448)"/>
<path d="M0 0 C3.21581553 2.31538718 4.18091396 3.47365585 5.125 7.25 C4.135 7.745 4.135 7.745 3.125 8.25 C2.733125 7.46625 2.34125 6.6825 1.9375 5.875 C-0.20009588 2.77917148 -1.26304412 2.15298897 -4.875 1.25 C-11.50744942 0.62429722 -16.90736821 2.24684854 -22.375 5.9375 C-22.87 6.370625 -23.365 6.80375 -23.875 7.25 C-23.875 4.25 -23.875 4.25 -21.8125 1.6875 C-15.15635537 -3.83568385 -7.46643623 -3.81067078 0 0 Z " fill="#00A149" transform="translate(247.875,56.75)"/>
<path d="M0 0 C3.68241368 1.70826772 5.42120855 2.73337533 7.7265625 6.19140625 C5.46858426 5.68963331 3.52412979 5.09839663 1.4140625 4.12890625 C-4.33565571 2.12319059 -9.67464522 3.11777948 -15.2734375 5.19140625 C-18.14022555 7.1822299 -18.14022555 7.1822299 -20.2734375 9.19140625 C-20.2734375 5.19140625 -20.2734375 5.19140625 -18.62109375 3.48828125 C-12.32659809 -0.77260812 -7.38015358 -2.62489998 0 0 Z " fill="#009351" transform="translate(244.2734375,349.80859375)"/>
<path d="M0 0 C4.53910217 5.41763808 5.41736175 9.18431483 5.34375 16.140625 C4.62376829 22.12956381 1.51528552 25.73726207 -3 29.5 C-6.02729752 31.01364876 -7.67787586 31.39083813 -11 31 C-9.72853369 28.45706738 -8.68630403 28.26022999 -6.125 27.125 C-2.8381717 25.54332413 -0.80174329 24.28553188 1 21 C2.02232879 17.93301363 2.1659049 15.71335122 2.1875 12.5 C2.20167969 11.5409375 2.21585937 10.581875 2.23046875 9.59375 C2.18755111 6.76253861 2.18755111 6.76253861 0 4 C0 2.68 0 1.36 0 0 Z " fill="#009E4F" transform="translate(489,150)"/>
<path d="M0 0 C0 0.99 0 1.98 0 3 C-10.395 3.495 -10.395 3.495 -21 4 C-21.33 2.68 -21.66 1.36 -22 0 C-14.50280391 -1.14364008 -7.53181418 -0.75667376 0 0 Z " fill="#018F53" transform="translate(512,440)"/>
<path d="M0 0 C0.66 0.33 1.32 0.66 2 1 C2.02709444 3.08326131 2.04643873 5.16662441 2.0625 7.25 C2.07410156 8.41015625 2.08570313 9.5703125 2.09765625 10.765625 C2 14 2 14 1.5 15.96875 C0.7389313 19.06059161 0.90810478 22.07531665 0.9375 25.25 C0.94652344 26.51328125 0.95554687 27.7765625 0.96484375 29.078125 C0.97644531 30.04234375 0.98804688 31.0065625 1 32 C0.01 32 -0.98 32 -2 32 C-2.41277905 9.19872014 -2.41277905 9.19872014 0 0 Z " fill="#019354" transform="translate(403,377)"/>
<path d="M0 0 C3.465 1.98 3.465 1.98 7 4 C7 4.66 7 5.32 7 6 C-2.57 6 -12.14 6 -22 6 C-22 5.34 -22 4.68 -22 4 C-14.41 4 -6.82 4 1 4 C1 3.34 1 2.68 1 2 C0.34 1.67 -0.32 1.34 -1 1 C-0.67 0.67 -0.34 0.34 0 0 Z " fill="#009F4E" transform="translate(22,141)"/>
<path d="M0 0 C2.31 0 4.62 0 7 0 C7.103125 0.515625 7.20625 1.03125 7.3125 1.5625 C7.98025819 4.19802852 7.98025819 4.19802852 9.5625 7.25 C11.58767157 11.95200727 11.96275675 16.36657713 10.203125 21.1796875 C8.53532635 24.68206466 6.85311587 27.34308694 4 30 C3.34 29.67 2.68 29.34 2 29 C2.52400391 28.32904297 2.52400391 28.32904297 3.05859375 27.64453125 C5.69164415 24.14622916 7.66384652 21.48204642 8 17 C8.103125 15.88625 8.20625 14.7725 8.3125 13.625 C7.90802765 8.93312074 6.71068458 6.84013648 4 3 C1.91548164 1.5337314 1.91548164 1.5337314 0 1 C0 0.67 0 0.34 0 0 Z " fill="#00A44A" transform="translate(41,1)"/>
<path d="M0 0 C0.66 0.33 1.32 0.66 2 1 C0.43496313 3.19105162 -1.06391035 5.05810032 -3.0625 6.875 C-7.38135069 11.61180398 -7.48333134 17.88155539 -8 24 C-8.66 23.67 -9.32 23.34 -10 23 C-10.74746095 15.5945998 -10.12076655 10.94367929 -5.703125 4.875 C-3.95199207 2.94714723 -2.13397807 1.48450648 0 0 Z " fill="#009F4C" transform="translate(26,111)"/>
<path d="M0 0 C0.66 0 1.32 0 2 0 C4.16509474 5.41273684 5.08173714 10.49568987 3.34765625 16.11328125 C1.00067771 21.46197484 -2.0719769 23.9673704 -7 27 C-7.33 26.01 -7.66 25.02 -8 24 C-7.2575 23.62875 -6.515 23.2575 -5.75 22.875 C-2.34235932 20.55160862 -0.84901198 18.69802396 1 15 C1.6526675 9.94182689 1.02072124 4.97601603 0 0 Z " fill="#019651" transform="translate(343,301)"/>
<path d="M0 0 C3.3 0 6.6 0 10 0 C9.67 1.32 9.34 2.64 9 4 C9.75036362 5.69647428 10.50346045 7.39195176 11.28515625 9.07421875 C13.02158073 13.75212733 12.45479989 17.93880026 10.5 22.5 C10.005 23.325 9.51 24.15 9 25 C8.34 24.67 7.68 24.34 7 24 C7.32355469 23.44054687 7.64710938 22.88109375 7.98046875 22.3046875 C10.20396207 17.27839991 9.54562507 11.66718771 7.875 6.5625 C5.61970172 3.48025902 3.51151439 2.40460575 0 1 C0 0.67 0 0.34 0 0 Z " fill="#00A349" transform="translate(335,1)"/>
<path d="M0 0 C5.94 0 11.88 0 18 0 C16 2 16 2 13.5625 3.4375 C10.05052356 5.57894905 8.28107479 7.57838781 6 11 C5.34 11 4.68 11 4 11 C5 8 6 5 7 2 C4.69 1.67 2.38 1.34 0 1 C0 0.67 0 0.34 0 0 Z " fill="#00A74C" transform="translate(307,1)"/>
<path d="M0 0 C9.05638678 -0.15178302 17.97582223 0.30962574 27 1 C27 1.66 27 2.32 27 3 C19.74 3 12.48 3 5 3 C5 2.34 5 1.68 5 1 C3.35 1 1.7 1 0 1 C0 0.67 0 0.34 0 0 Z " fill="#009750" transform="translate(372,292)"/>
<path d="M0 0 C0.66 0.33 1.32 0.66 2 1 C1.67 1.33 1.34 1.66 1 2 C1.66 2.66 2.32 3.32 3 4 C2.21625 4.391875 1.4325 4.78375 0.625 5.1875 C-2.49514536 7.34188608 -3.03379895 8.37674608 -4 12 C-4.42628333 14.66674918 -4.72648755 17.31046091 -5 20 C-5.66 19.67 -6.32 19.34 -7 19 C-7.72641371 12.31699385 -5.42741688 7.68120313 -2 2 C-1.34 1.34 -0.68 0.68 0 0 Z " fill="#019B53" transform="translate(170,261)"/>
<path d="M0 0 C6.6 0 13.2 0 20 0 C20 0.99 20 1.98 20 3 C15.71 3 11.42 3 7 3 C7 2.34 7 1.68 7 1 C4.69 1 2.38 1 0 1 C0 0.67 0 0.34 0 0 Z " fill="#009D4C" transform="translate(492,145)"/>
<path d="M0 0 C0.33 0 0.66 0 1 0 C1.05789006 3.45826342 1.09355821 6.91640293 1.125 10.375 C1.14175781 11.35984375 1.15851563 12.3446875 1.17578125 13.359375 C1.18222656 14.30039062 1.18867188 15.24140625 1.1953125 16.2109375 C1.20578613 17.08024902 1.21625977 17.94956055 1.22705078 18.84521484 C1 21 1 21 -1 23 C-3.05857844 5.3918023 -3.05857844 5.3918023 0 0 Z " fill="#009753" transform="translate(403,295)"/>
<path d="M0 0 C-0.33 0.66 -0.66 1.32 -1 2 C-2.010625 1.649375 -3.02125 1.29875 -4.0625 0.9375 C-7.96485931 -0.17067506 -11.03056781 0.00764195 -15 1 C-16.92283085 2.41591827 -16.92283085 2.41591827 -18 4 C-18.66 3.67 -19.32 3.34 -20 3 C-13.92885313 -5.54457707 -8.61307003 -4.30653501 0 0 Z " fill="#02925A" transform="translate(278,501)"/>
<path d="M0 0 C3 1 3 1 4.6875 3.75 C7.54953889 7.77232492 10.73362629 9.65970762 15 12 C12 13 12 13 8.8125 11.5625 C7.884375 11.046875 6.95625 10.53125 6 10 C6 9.34 6 8.68 6 8 C4.02 7.34 2.04 6.68 0 6 C0 4.02 0 2.04 0 0 Z " fill="#009B51" transform="translate(254,224)"/>
<path d="M0 0 C0 3 0 3 -1 5 C-1.22950319 7.204364 -1.41075933 9.41392173 -1.5625 11.625 C-1.64628906 12.81351563 -1.73007813 14.00203125 -1.81640625 15.2265625 C-1.87699219 16.14179688 -1.93757812 17.05703125 -2 18 C-4.57311811 15.74681985 -4.9678715 15.28380175 -5.375 11.6875 C-4.8802628 6.82258415 -3.46566419 3.46566419 0 0 Z " fill="#00A152" transform="translate(168,152)"/>
<path d="M0 0 C0 3.44122867 -0.70458488 6.34012803 -1.5 9.6875 C-1.7784375 10.86699219 -2.056875 12.04648438 -2.34375 13.26171875 C-2.5603125 14.16535156 -2.776875 15.06898438 -3 16 C-3.66 15.67 -4.32 15.34 -5 15 C-5.29047722 9.38410702 -5.10842092 5.90174068 -2 1 C-1.34 0.67 -0.68 0.34 0 0 Z " fill="#00A152" transform="translate(463,152)"/>
<path d="M0 0 C0.66 0.33 1.32 0.66 2 1 C1.2884375 1.928125 1.2884375 1.928125 0.5625 2.875 C-1.02417441 4.90705546 -1.02417441 4.90705546 -2 7 C-2.66 7 -3.32 7 -4 7 C-4.66 9.31 -5.32 11.62 -6 14 C-6.66 14 -7.32 14 -8 14 C-7.65015815 8.40253042 -3.85992893 3.85992893 0 0 Z " fill="#019153" transform="translate(24,407)"/>
<path d="M0 0 C0.66 0.33 1.32 0.66 2 1 C0.515 2.485 0.515 2.485 -1 4 C-0.67 4.66 -0.34 5.32 0 6 C-0.639375 6.61875 -1.27875 7.2375 -1.9375 7.875 C-4.03883584 9.82597612 -4.03883584 9.82597612 -5 12 C-5.66 12 -6.32 12 -7 12 C-5.80805531 6.47371099 -4.4008703 3.82180842 0 0 Z " fill="#019254" transform="translate(319,407)"/>
<path d="M0 0 C3.3 0 6.6 0 10 0 C8 2 8 2 5.4375 3 C2.85158559 3.74870114 2.85158559 3.74870114 2 6 C1.01 5.67 0.02 5.34 -1 5 C-0.67 3.35 -0.34 1.7 0 0 Z " fill="#00A448" transform="translate(19,1)"/>
<path d="M0 0 C0.12375 0.639375 0.2475 1.27875 0.375 1.9375 C0.684375 2.9584375 0.684375 2.9584375 1 4 C1.66 4.33 2.32 4.66 3 5 C2.43224464 6.29858939 1.84508337 7.58870441 1.25 8.875 C0.92515625 9.59429687 0.6003125 10.31359375 0.265625 11.0546875 C-1.21929686 13.3370674 -2.50415408 14.00375898 -5 15 C-4.360625 14.01 -3.72125 13.02 -3.0625 12 C-0.74593674 7.99717514 -0.32145895 4.58078998 0 0 Z " fill="#019256" transform="translate(344,423)"/>
<path d="M0 0 C0.66 0.33 1.32 0.66 2 1 C1.34 1.66 0.68 2.32 0 3 C2.31 3.33 4.62 3.66 7 4 C7 4.33 7 4.66 7 5 C1.06 5.495 1.06 5.495 -5 6 C-3 2 -3 2 0 0 Z " fill="#019951" transform="translate(468,259)"/>
<path d="M0 0 C0.33 0.66 0.66 1.32 1 2 C1.66 2.33 2.32 2.66 3 3 C2.06725891 4.12894876 1.12859878 5.25300876 0.1875 6.375 C-0.33457031 7.00148437 -0.85664063 7.62796875 -1.39453125 8.2734375 C-3 10 -3 10 -6 12 C-8.1875 11.625 -8.1875 11.625 -10 11 C-9.16855469 10.56300781 -9.16855469 10.56300781 -8.3203125 10.1171875 C-3.4210148 7.38113153 -3.4210148 7.38113153 -0.5 2.6875 C-0.335 1.800625 -0.17 0.91375 0 0 Z " fill="#009C52" transform="translate(286,225)"/>
<path d="M0 0 C0.66 0.33 1.32 0.66 2 1 C1.125 4.875 1.125 4.875 0 6 C-1.66617115 6.04063832 -3.33388095 6.042721 -5 6 C-4.75 4.125 -4.75 4.125 -4 2 C-2.0625 0.6875 -2.0625 0.6875 0 0 Z " fill="#03B863" transform="translate(64,58)"/>
<path d="M0 0 C0.66 0.33 1.32 0.66 2 1 C1.125 4.875 1.125 4.875 0 6 C-1.66617115 6.04063832 -3.33388095 6.042721 -5 6 C-3.63016497 2.83884224 -3.0109362 2.0072908 0 0 Z " fill="#03B863" transform="translate(359,58)"/>
<path d="M0 0 C-0.33 1.65 -0.66 3.3 -1 5 C-2.98 5.33 -4.96 5.66 -7 6 C-5.52522876 2.59668175 -4.14385429 0 0 0 Z " fill="#06AC6B" transform="translate(66,353)"/>
<path d="M0 0 C1.32 0 2.64 0 4 0 C3.67 1.32 3.34 2.64 3 4 C1.02 4.33 -0.96 4.66 -3 5 C-1.125 1.125 -1.125 1.125 0 0 Z " fill="#07AC6C" transform="translate(357,354)"/>
<path d="M0 0 C0.33 0.66 0.66 1.32 1 2 C1.99 2.33 2.98 2.66 4 3 C1.69 5.64 -0.62 8.28 -3 11 C-3.66 10.67 -4.32 10.34 -5 10 C-4.54625 9.649375 -4.0925 9.29875 -3.625 8.9375 C-1.35338666 6.22903794 -0.83201146 3.39204672 0 0 Z " fill="#009150" transform="translate(434,371)"/>
<path d="M0 0 C2 2 2 2 2.25 5.4375 C2 9 2 9 0 12 C-0.19477739 10.37585622 -0.38059458 8.75063577 -0.5625 7.125 C-0.66691406 6.22007812 -0.77132812 5.31515625 -0.87890625 4.3828125 C-1 2 -1 2 0 0 Z " fill="#009D4B" transform="translate(107,122)"/>
<path d="M0 0 C0.99 0.33 1.98 0.66 3 1 C2.01 1.495 2.01 1.495 1 2 C2.98 2.66 4.96 3.32 7 4 C2.91556885 5.53166168 -0.79455657 4.63081652 -5 4 C-3.36587557 2.29159719 -2.13093906 1.06546953 0 0 Z " fill="#00A14A" transform="translate(416,54)"/>
<path d="M0 0 C0.99 0.33 1.98 0.66 3 1 C2.67 3.31 2.34 5.62 2 8 C1.34 8 0.68 8 0 8 C0 5.36 0 2.72 0 0 Z " fill="#009E4C" transform="translate(49,129)"/>
<path d="M0 0 C0 0.66 0 1.32 0 2 C0.66 2.33 1.32 2.66 2 3 C-2.455 3.495 -2.455 3.495 -7 4 C-3.375 0 -3.375 0 0 0 Z " fill="#009B4F" transform="translate(270,202)"/>
<path d="M0 0 C0.33 1.32 0.66 2.64 1 4 C1.66 4 2.32 4 3 4 C2.34 6.31 1.68 8.62 1 11 C0.34 10.34 -0.32 9.68 -1 9 C-0.9765625 6.8359375 -0.9765625 6.8359375 -0.625 4.375 C-0.51414062 3.55773437 -0.40328125 2.74046875 -0.2890625 1.8984375 C-0.19367188 1.27195313 -0.09828125 0.64546875 0 0 Z " fill="#009E4D" transform="translate(344,128)"/>
<path d="M0 0 C0.99 0.99 1.98 1.98 3 3 C2.34 4.98 1.68 6.96 1 9 C0.67 9 0.34 9 0 9 C0 6.03 0 3.06 0 0 Z " fill="#019053" transform="translate(49,423)"/>
</svg>
