<?xml version="1.0" encoding="UTF-8"?>
<svg version="1.1" xmlns="http://www.w3.org/2000/svg" width="512" height="512">
<path d="M0 0 C6.37065046 3.80097632 10.59211748 9.7270107 12.90625 16.73828125 C14.54507686 24.64562084 13.93368338 32.71815628 10.375 40 C8.25 42.875 8.25 42.875 6.375 45 C6.045 45.99 5.715 46.98 5.375 48 C6.13619644 47.98889694 6.89739288 47.97779388 7.68165588 47.96635437 C14.87561275 47.86592741 22.06922698 47.78992218 29.26370335 47.74093914 C32.96199653 47.71490905 36.65970773 47.67963454 40.35766602 47.62280273 C43.93035999 47.56824329 47.50249627 47.53852996 51.07557487 47.52561378 C52.43471996 47.51641636 53.7938365 47.49845553 55.15274239 47.47134972 C67.10386372 47.24256985 67.10386372 47.24256985 71.64038086 50.09301758 C77.97681497 56.82883768 76.66781941 65.30863919 76.640625 74.0703125 C76.64197432 75.43838571 76.64391707 76.80645845 76.64642334 78.17453003 C76.64936007 81.03062542 76.64512263 83.88659509 76.63574219 86.74267578 C76.62432669 90.39543174 76.63092939 94.04789441 76.64288712 97.70063972 C76.65012659 100.52141516 76.6478086 103.34212146 76.64263153 106.16289902 C76.64065789 108.16199689 76.64670751 110.16109749 76.65289307 112.16018677 C76.64343658 113.98765945 76.64343658 113.98765945 76.63378906 115.85205078 C76.63219788 116.92125763 76.63060669 117.99046448 76.62896729 119.09207153 C76.36718025 122.08953624 75.63761966 124.28469016 74.375 127 C65.854519 127.41600902 60.48387063 126.9723745 53.4375 121.875 C49.74574173 119.61473983 46.667636 118.54061264 42.375 119 C37.39302771 120.78971145 33.3496671 122.53799935 30.375 127 C29.715 127 29.055 127 28.375 127 C28.230625 127.7425 28.08625 128.485 27.9375 129.25 C27.375 132 27.375 132 26.8125 133.9375 C25.63639663 139.48198731 26.51943016 143.28791721 29.17578125 148.171875 C31.5093101 151.72917631 34.30357161 153.47674427 38.0625 155.3125 C45.00571328 156.75354426 51.29798109 155.64621135 57.375 152 C58.18517578 151.46246094 58.18517578 151.46246094 59.01171875 150.9140625 C63.69271028 147.94768135 66.81654719 147.27102258 72.375 148 C75.29969107 150.15805568 76.26381979 151.33603741 76.86947632 154.95298767 C76.86662628 156.10150711 76.86377625 157.25002655 76.86083984 158.43334961 C76.87006973 160.39074318 76.87006973 160.39074318 76.87948608 162.38768005 C76.86568783 163.80924177 76.85115368 165.2307965 76.8359375 166.65234375 C76.83355181 168.11438332 76.83264802 169.57642598 76.8331604 171.03846741 C76.83003453 174.10095448 76.81348857 177.16297269 76.78662109 180.2253418 C76.7526714 184.14388895 76.74499185 188.0619205 76.74651146 191.9805975 C76.74596657 194.99956655 76.7349799 198.01842369 76.72050858 201.03735542 C76.71415962 202.48178829 76.71020614 203.9262338 76.70872116 205.37067986 C76.70436637 207.39291842 76.68525242 209.4151088 76.66552734 211.43725586 C76.65790375 212.58657089 76.65028015 213.73588593 76.64242554 214.92002869 C76.27570343 219.1436102 75.21459367 221.95774579 72.5625 225.25 C68.71068347 228.33145323 64.37750559 228.12558193 59.59423828 228.12939453 C58.45600616 228.13254669 57.31777405 228.13569885 56.14505005 228.13894653 C54.92413666 228.1369223 53.70322327 228.13489807 52.4453125 228.1328125 C51.18161835 228.13376923 49.91792419 228.13472595 48.61593628 228.13571167 C45.94460618 228.13639175 43.27336776 228.13505327 40.60205078 228.13037109 C37.19388712 228.12468574 33.78580242 228.12794886 30.37764168 228.13394356 C27.10852921 228.13844743 23.839426 228.13528376 20.5703125 228.1328125 C19.35344757 228.13483673 18.13658264 228.13686096 16.88284302 228.13894653 C2.00037712 228.09795883 2.00037712 228.09795883 -1.5390625 225.70703125 C-3.63327676 222.41504696 -3.12203927 218.74691146 -2.625 215 C-1.125 211.4375 -1.125 211.4375 0.375 209 C1.035 209 1.695 209 2.375 209 C2.560625 208.195625 2.560625 208.195625 2.75 207.375 C3.375 205 3.375 205 4.4375 202.1875 C6.09162784 196.56346533 5.7308723 192.30071266 3.375 187 C3.375 186.01 3.375 185.02 3.375 184 C2.75625 183.690625 2.1375 183.38125 1.5 183.0625 C0.125 182.375 -1.25 181.6875 -2.625 181 C-2.625 180.34 -2.625 179.68 -2.625 179 C-10.83638804 177.03886093 -16.75470814 176.76134008 -24.625 180 C-24.625 180.66 -24.625 181.32 -24.625 182 C-25.223125 182.53625 -25.82125 183.0725 -26.4375 183.625 C-29.82502948 187.30288915 -31.40067318 191.17042309 -31.796875 196.16796875 C-31.50890527 201.97878658 -29.16495377 206.04285847 -26 210.8359375 C-23.76169212 214.35872888 -23.50956709 217.11166594 -23.5625 221.1875 C-23.57152344 222.08855469 -23.58054688 222.98960937 -23.58984375 223.91796875 C-23.60724609 224.94857422 -23.60724609 224.94857422 -23.625 226 C-27.60269943 227.86891434 -30.77777712 228.25701409 -35.15600586 228.2746582 C-36.45763168 228.28419022 -37.75925751 228.29372223 -39.10032654 228.30354309 C-40.51349922 228.30328165 -41.92667191 228.30234451 -43.33984375 228.30078125 C-44.79806133 228.3046714 -46.25627779 228.30900673 -47.7144928 228.31376648 C-50.76664915 228.32121577 -53.8186898 228.32094678 -56.87084961 228.31567383 C-60.77251027 228.30988004 -64.67369609 228.32681383 -68.57527828 228.3500185 C-71.58568569 228.36478553 -74.59597949 228.36562354 -77.6064167 228.36250877 C-79.04445906 228.36302047 -80.48250802 228.36822965 -81.92051506 228.37832069 C-83.93517272 228.39072441 -85.94992672 228.38193216 -87.96459961 228.37231445 C-89.10867783 228.37294388 -90.25275604 228.3735733 -91.4315033 228.3742218 C-95.12775169 227.94108632 -97.49185347 226.99728626 -100.625 225 C-103.04942788 221.79396536 -102.89744649 218.59953089 -102.94384766 214.67089844 C-102.96371735 213.38987244 -102.98358704 212.10884644 -103.00405884 210.78900146 C-103.01593436 209.3957944 -103.02759727 208.0025855 -103.0390625 206.609375 C-103.05777832 205.1801848 -103.07735205 203.75100559 -103.0977478 202.32183838 C-103.14903148 198.56708264 -103.18867716 194.81229108 -103.22589111 191.05737305 C-103.26595449 187.2230547 -103.31703615 183.38888483 -103.3671875 179.5546875 C-103.46390215 172.03656028 -103.54832101 164.5183611 -103.625 157 C-104.615 157 -105.605 157 -106.625 157 C-106.625 157.66 -106.625 158.32 -106.625 159 C-108.2279053 159.81498562 -109.83237278 160.62689927 -111.4375 161.4375 C-112.77748047 162.11619141 -112.77748047 162.11619141 -114.14453125 162.80859375 C-120.4333053 165.82918601 -126.77769716 165.88488221 -133.625 165 C-138.00797694 163.17813146 -141.93028432 160.99096031 -145.625 158 C-145.625 157.34 -145.625 156.68 -145.625 156 C-146.615 155.67 -147.605 155.34 -148.625 155 C-153.38330498 146.7303941 -154.63156501 137.63979755 -152.47265625 128.41796875 C-149.56184141 120.11476882 -142.52054009 114.39337515 -134.8125 110.625 C-124.5128937 108.60546935 -116.87331166 110.40331306 -108.25 116.1875 C-107.38375 116.785625 -106.5175 117.38375 -105.625 118 C-104.635 118.33 -103.645 118.66 -102.625 119 C-102.62722061 118.23214172 -102.62944122 117.46428345 -102.63172913 116.67315674 C-102.65177266 109.43406022 -102.66699488 102.19497717 -102.67681217 94.95586014 C-102.68202901 91.23423325 -102.6891049 87.51262931 -102.70043945 83.79101562 C-102.71131093 80.19893926 -102.71728588 76.60688495 -102.71987724 73.0147934 C-102.7217238 71.64488121 -102.72532966 70.27497023 -102.73073006 68.90506744 C-102.73799688 66.98522623 -102.73840854 65.06536278 -102.73852539 63.14550781 C-102.740746 62.05296692 -102.74296661 60.96042603 -102.74525452 59.83477783 C-102.64096014 57.37623073 -102.33950164 55.34237451 -101.625 53 C-100.965 53 -100.305 53 -99.625 53 C-99.295 52.01 -98.965 51.02 -98.625 50 C-94.85548275 47.9630689 -91.59972198 47.75570378 -87.3659668 47.77294922 C-85.50460335 47.77317581 -85.50460335 47.77317581 -83.6056366 47.77340698 C-82.26182899 47.78361857 -80.91802305 47.79405054 -79.57421875 47.8046875 C-78.1913117 47.80842069 -76.80840198 47.81126622 -75.42549133 47.81326294 C-71.7971966 47.82087538 -68.16906363 47.84050309 -64.54083252 47.8626709 C-60.83388456 47.88318101 -57.1269103 47.89227567 -53.41992188 47.90234375 C-46.15487441 47.92375145 -38.88995993 47.95785825 -31.625 48 C-32.13595215 47.2898877 -32.13595215 47.2898877 -32.65722656 46.56542969 C-33.10549805 45.94055664 -33.55376953 45.31568359 -34.015625 44.671875 C-34.45938477 44.0540918 -34.90314453 43.43630859 -35.36035156 42.79980469 C-40.34367342 35.70771033 -41.19913075 28.13665522 -40.3125 19.625 C-39.71757567 16.48812627 -38.97514505 13.88030943 -37.625 11 C-36.965 11 -36.305 11 -35.625 11 C-35.24988281 10.12214844 -35.24988281 10.12214844 -34.8671875 9.2265625 C-33.46023859 6.70467294 -31.93787196 5.24913938 -29.75 3.375 C-29.07195312 2.78460938 -28.39390625 2.19421875 -27.6953125 1.5859375 C-20.29219357 -4.08513097 -8.36471258 -3.78707262 0 0 Z " fill="#FEFDFD" transform="translate(273.625,77)"/>
<path d="M0 0 C168.96 0 337.92 0 512 0 C512 168.96 512 337.92 512 512 C343.04 512 174.08 512 0 512 C0 343.04 0 174.08 0 0 Z M3 3 C3 169.98 3 336.96 3 509 C169.98 509 336.96 509 509 509 C509 342.02 509 175.04 509 3 C342.02 3 175.04 3 3 3 Z " fill="#FFFFFF" transform="translate(0,0)"/>
<path d="M0 0 C3.6875 0.375 3.6875 0.375 6.125 2.5 C7.89580209 5.75827585 8.02725517 7.72263197 7.6875 11.375 C10.77992093 11.6220047 10.77992093 11.6220047 13.4375 9.8125 C17.50342611 8.01410961 19.41464946 8.25056565 23.6875 9.375 C26.15081687 10.56816911 28.36682468 11.90681766 30.6875 13.375 C30.6875 12.715 30.6875 12.055 30.6875 11.375 C31.3475 11.375 32.0075 11.375 32.6875 11.375 C32.6875 10.715 32.6875 10.055 32.6875 9.375 C35.12507413 9.34801578 37.56234915 9.32816901 40 9.3125 C40.69029297 9.30412109 41.38058594 9.29574219 42.09179688 9.28710938 C45.2358025 9.27192094 47.68170019 9.37306673 50.6875 10.375 C51.80125 9.88 51.80125 9.88 52.9375 9.375 C56.67626831 8.01544789 58.84430182 8.38106944 62.6875 9.375 C69.10225141 12.78601861 69.10225141 12.78601861 70.4140625 16.34765625 C70.79019486 19.13640905 70.16707746 21.61742959 69.6875 24.375 C70.0175 25.035 70.3475 25.695 70.6875 26.375 C71.37690754 33.38397666 71.37690754 33.38397666 68.6875 37.25 C63.92179065 40.62571079 59.5580926 41.375 53.6875 41.375 C53.6875 40.715 53.6875 40.055 53.6875 39.375 C53.130625 39.313125 52.57375 39.25125 52 39.1875 C48.45006169 37.94022438 46.90349271 36.41407571 44.6875 33.375 C44.56265396 30.26945487 45.02129081 27.40262396 45.6875 24.375 C43.48548541 26.14427541 43.48548541 26.14427541 43.52734375 28.3984375 C43.55957031 29.17445313 43.59179688 29.95046875 43.625 30.75 C43.74431187 33.85210865 43.56677601 36.38955122 42.6875 39.375 C34.49493982 40.82795405 34.49493982 40.82795405 31.125 38.9375 C30.650625 38.421875 30.17625 37.90625 29.6875 37.375 C29.2028125 37.67535156 28.718125 37.97570312 28.21875 38.28515625 C22.81851547 41.34875084 19.74051557 41.86344645 13.6875 40.375 C11.38946329 39.20153444 9.5071844 38.1946844 7.6875 36.375 C7.0275 37.365 6.3675 38.355 5.6875 39.375 C-0.32631302 41.26823743 -7.05204103 42.01165684 -13.3125 41.375 C-14.323125 40.653125 -15.33375 39.93125 -16.375 39.1875 C-17.344375 38.589375 -18.31375 37.99125 -19.3125 37.375 C-22.90586492 38.62929661 -22.90586492 38.62929661 -26.3125 40.375 C-29.78175048 40.14371663 -30.8422292 39.8452708 -33.3125 37.375 C-33.3125 36.055 -33.3125 34.735 -33.3125 33.375 C-33.9725 33.375 -34.6325 33.375 -35.3125 33.375 C-35.3125 35.025 -35.3125 36.675 -35.3125 38.375 C-39.72475737 39.84575246 -42.79531619 40.74384358 -47.3125 39.375 C-47.3125 38.385 -47.3125 37.395 -47.3125 36.375 C-48.364375 37.014375 -49.41625 37.65375 -50.5 38.3125 C-55.30099554 41.23075219 -59.16629784 41.67480582 -64.625 40.4375 C-65.50800781 40.24285156 -66.39101563 40.04820312 -67.30078125 39.84765625 C-68.29658203 39.61369141 -68.29658203 39.61369141 -69.3125 39.375 C-69.3125 38.715 -69.3125 38.055 -69.3125 37.375 C-70.3025 37.045 -71.2925 36.715 -72.3125 36.375 C-72.3125 35.715 -72.3125 35.055 -72.3125 34.375 C-72.9725 34.375 -73.6325 34.375 -74.3125 34.375 C-74.3125 33.385 -74.3125 32.395 -74.3125 31.375 C-74.9725 31.375 -75.6325 31.375 -76.3125 31.375 C-76.6425 33.685 -76.9725 35.995 -77.3125 38.375 C-82.8540502 40.33763236 -86.52108017 40.39103857 -92.3125 39.375 C-92.9725 37.395 -93.6325 35.415 -94.3125 33.375 C-94.6425 34.344375 -94.9725 35.31375 -95.3125 36.3125 C-97.3125 39.375 -97.3125 39.375 -99.15234375 40.03125 C-102.7428873 40.51266366 -105.87467524 40.64527269 -109.3125 39.375 C-113.07347155 33.87179058 -114.51458325 26.64610882 -116.0625 20.25 C-116.28292969 19.39535156 -116.50335938 18.54070312 -116.73046875 17.66015625 C-117.93163529 12.80326545 -118.85826109 8.37781 -118.3125 3.375 C-115.31511059 1.37674039 -114.67902492 1.09949602 -111.3125 1.125 C-110.631875 1.11984375 -109.95125 1.1146875 -109.25 1.109375 C-107.3125 1.375 -107.3125 1.375 -104.3125 3.375 C-103.625 6.5 -103.625 6.5 -103.3125 9.375 C-102.85875 8.42625 -102.405 7.4775 -101.9375 6.5 C-100.3125 3.375 -100.3125 3.375 -98.3125 1.375 C-91.26275381 0.6927665 -91.26275381 0.6927665 -87.875 3.125 C-86.36851102 5.29434413 -85.68298807 6.7815835 -85.3125 9.375 C-85.044375 8.42625 -84.77625 7.4775 -84.5 6.5 C-83.3125 3.375 -83.3125 3.375 -80.3125 1.375 C-74.29262647 0.83751129 -74.29262647 0.83751129 -71.375 2.4375 C-69.75770395 5.38668691 -70.12619862 8.08367559 -70.3125 11.375 C-69.136875 10.859375 -67.96125 10.34375 -66.75 9.8125 C-62.54249941 8.25690999 -59.71773347 8.17357269 -55.3125 9.375 C-52.85186182 10.57154563 -50.63231128 11.90736429 -48.3125 13.375 C-47.9825 12.385 -47.6525 11.395 -47.3125 10.375 C-44.67139479 9.0544474 -42.3569159 9.35914623 -39.4609375 9.421875 C-37.05635469 9.43554896 -37.05635469 9.43554896 -33.75 8.625 C-28.98919015 8.27875928 -27.21201582 9.69886169 -23.3125 12.375 C-22.3225 13.365 -22.3225 13.365 -21.3125 14.375 C-20.301875 13.570625 -19.29125 12.76625 -18.25 11.9375 C-15.33608891 9.80378417 -14.32887807 9.37663781 -10.5625 9 C-9.49 8.79375 -8.4175 8.5875 -7.3125 8.375 C-5.35066375 4.96491365 -5.35066375 4.96491365 -4.3125 1.375 C-3.3125 0.375 -3.3125 0.375 0 0 Z M-9.3125 22.375 C-9.6425 23.695 -9.9725 25.015 -10.3125 26.375 C-8.9925 26.045 -7.6725 25.715 -6.3125 25.375 C-6.3125 24.715 -6.3125 24.055 -6.3125 23.375 C-7.3025 23.045 -8.2925 22.715 -9.3125 22.375 Z M-62.3125 23.375 C-62.3125 24.365 -62.3125 25.355 -62.3125 26.375 C-60.9925 26.045 -59.6725 25.715 -58.3125 25.375 C-58.6425 24.715 -58.9725 24.055 -59.3125 23.375 C-60.3025 23.375 -61.2925 23.375 -62.3125 23.375 Z M-35.3125 23.375 C-34.3125 25.375 -34.3125 25.375 -34.3125 25.375 Z M-34.3125 26.375 C-34.6425 27.695 -34.9725 29.015 -35.3125 30.375 C-34.6525 30.375 -33.9925 30.375 -33.3125 30.375 C-33.6425 29.055 -33.9725 27.735 -34.3125 26.375 Z " fill="#0C0C0C" transform="translate(363.3125,334.625)"/>
<path d="M0 0 C3.5625 0.3125 3.5625 0.3125 5.4375 1.375 C7.12656511 4.28394546 7.32515228 6.98963187 7.5625 10.3125 C7.2325 11.3025 6.9025 12.2925 6.5625 13.3125 C7.5525 13.3125 8.5425 13.3125 9.5625 13.3125 C9.5625 12.6525 9.5625 11.9925 9.5625 11.3125 C14.75972684 8.66085365 17.69300393 7.87281229 23.5625 9.3125 C27.30020492 10.78790984 27.30020492 10.78790984 28.5625 13.3125 C29.11123779 12.65983154 29.65997559 12.00716309 30.2253418 11.3347168 C33.07588177 8.86829847 34.24989723 8.8493156 37.95703125 8.95703125 C38.99537109 8.97443359 40.03371094 8.99183594 41.10351562 9.00976562 C42.18310547 9.04779297 43.26269531 9.08582031 44.375 9.125 C46.50640244 9.17773838 48.6379203 9.22602899 50.76953125 9.26953125 C52.27652588 9.30288574 52.27652588 9.30288574 53.81396484 9.33691406 C56.16284884 9.31604993 58.28404107 9.12830105 60.58984375 8.72265625 C64.46428921 8.18807442 65.91344293 9.01525162 69.0546875 11.0859375 C72.50021629 13.88877699 73.41228432 16.59897553 74.3125 20.875 C74.78526416 26.26040048 75.03142285 32.09395831 73.5625 37.3125 C70.35342473 39.88515362 69.04599553 40.32888968 64.875 40.1875 C61.5625 39.3125 61.5625 39.3125 59.5625 36.3125 C58.758125 37.3025 58.758125 37.3025 57.9375 38.3125 C55.5625 40.3125 55.5625 40.3125 52.5625 40.75 C49.14428747 40.25151067 47.93203775 39.80355251 45.5625 37.3125 C45.171875 33.95703125 45.171875 33.95703125 45.3125 30.125 C45.34859375 28.85269531 45.3846875 27.58039063 45.421875 26.26953125 C45.46828125 25.29371094 45.5146875 24.31789063 45.5625 23.3125 C44.9025 23.3125 44.2425 23.3125 43.5625 23.3125 C43.57410156 24.04855469 43.58570313 24.78460938 43.59765625 25.54296875 C43.60667969 26.51878906 43.61570313 27.49460937 43.625 28.5 C43.63660156 29.46292969 43.64820313 30.42585938 43.66015625 31.41796875 C43.56736622 34.16826513 43.18361685 36.63729591 42.5625 39.3125 C40.98120971 39.53581199 39.39728911 39.74054644 37.8125 39.9375 C36.93078125 40.05351562 36.0490625 40.16953125 35.140625 40.2890625 C32.5625 40.3125 32.5625 40.3125 30.4765625 39.25 C28.61104505 38.08452381 28.61104505 38.08452381 26.6328125 38.7734375 C25.99085938 39.07507813 25.34890625 39.37671875 24.6875 39.6875 C21.06467355 41.17138832 18.52819295 41.97344882 14.5625 41.3125 C11.75086932 39.84022794 9.14785946 38.14981129 6.5625 36.3125 C6.2325 37.3025 5.9025 38.2925 5.5625 39.3125 C3.65575791 39.55084276 1.74862669 39.7864071 -0.16015625 40.0078125 C-2.4004339 40.2770402 -2.4004339 40.2770402 -4.43359375 40.7421875 C-10.31857095 41.90260554 -14.29978622 40.21949719 -19.4375 37.3125 C-22 35.5625 -22 35.5625 -23.4375 34.3125 C-23.4375 34.9725 -23.4375 35.6325 -23.4375 36.3125 C-29.09025661 40.12196641 -33.66363615 41.03990991 -40.4375 41.3125 C-40.4375 40.6525 -40.4375 39.9925 -40.4375 39.3125 C-41.5821875 39.126875 -41.5821875 39.126875 -42.75 38.9375 C-45.4375 38.3125 -45.4375 38.3125 -48.4375 36.3125 C-48.7675 37.3025 -49.0975 38.2925 -49.4375 39.3125 C-56.9375 40.4375 -56.9375 40.4375 -61.4375 39.3125 C-62.0975 36.0125 -62.7575 32.7125 -63.4375 29.3125 C-64.0975 29.9725 -64.7575 30.6325 -65.4375 31.3125 C-69.0625 31.4375 -69.0625 31.4375 -72.4375 31.3125 C-72.7675 30.6525 -73.0975 29.9925 -73.4375 29.3125 C-73.56125 30.59125 -73.685 31.87 -73.8125 33.1875 C-74.1875 37.0625 -74.1875 37.0625 -76.4375 39.3125 C-81.15363005 40.59871729 -83.91633693 39.95426313 -88.4375 38.3125 C-88.51165168 33.52534377 -88.56610204 28.73852173 -88.60229492 23.95092773 C-88.61738243 22.32228777 -88.63785506 20.69368844 -88.66381836 19.06518555 C-88.70020449 16.72434465 -88.7172262 14.38404081 -88.73046875 12.04296875 C-88.74595261 11.31474411 -88.76143646 10.58651947 -88.77738953 9.83622742 C-88.77835879 6.92543475 -88.77852837 4.83516658 -87.16137695 2.35668945 C-84.10827875 0.50736202 -80.83486952 0.70984771 -77.4375 1.3125 C-74.39784366 3.1233591 -72.83327769 4.21650023 -71.625 7.5625 C-71.563125 8.14 -71.50125 8.7175 -71.4375 9.3125 C-70.7775 9.3125 -70.1175 9.3125 -69.4375 9.3125 C-69.4375 9.9725 -69.4375 10.6325 -69.4375 11.3125 C-68.4475 11.3125 -67.4575 11.3125 -66.4375 11.3125 C-66.32535156 10.71953125 -66.21320313 10.1265625 -66.09765625 9.515625 C-64.98180585 5.7917219 -62.64541702 3.43963811 -59.4375 1.3125 C-56.41561835 0.59979206 -54.61013534 0.84440626 -51.4375 1.3125 C-49.08737079 2.99116372 -48.51368053 3.94322795 -47.92578125 6.79296875 C-47.86777344 7.68628906 -47.80976562 8.57960938 -47.75 9.5 C-47.65138672 10.85158203 -47.65138672 10.85158203 -47.55078125 12.23046875 C-47.49470703 13.26107422 -47.49470703 13.26107422 -47.4375 14.3125 C-46.880625 13.69375 -46.32375 13.075 -45.75 12.4375 C-42.8224684 9.74733582 -40.58130152 8.3125 -36.515625 8.3125 C-32.19449224 8.70237664 -28.93322786 9.58146261 -25.4375 12.3125 C-25.4375 12.9725 -25.4375 13.6325 -25.4375 14.3125 C-24.7775 14.3125 -24.1175 14.3125 -23.4375 14.3125 C-23.4375 14.9725 -23.4375 15.6325 -23.4375 16.3125 C-22.99019531 15.90257812 -22.54289062 15.49265625 -22.08203125 15.0703125 C-17.3104536 10.81760576 -14.04611078 8.3125 -7.4375 8.3125 C-7.14875 7.36375 -6.86 6.415 -6.5625 5.4375 C-5.04168553 1.21301537 -4.53708628 0.41246239 0 0 Z M-37.4375 23.3125 C-37.4375 24.3025 -37.4375 25.2925 -37.4375 26.3125 C-36.4475 26.3125 -35.4575 26.3125 -34.4375 26.3125 C-34.4375 25.3225 -34.4375 24.3325 -34.4375 23.3125 C-35.4275 23.3125 -36.4175 23.3125 -37.4375 23.3125 Z M-10.4375 23.3125 C-10.4375 24.3025 -10.4375 25.2925 -10.4375 26.3125 C-9.1175 25.9825 -7.7975 25.6525 -6.4375 25.3125 C-6.7675 24.6525 -7.0975 23.9925 -7.4375 23.3125 C-8.4275 23.3125 -9.4175 23.3125 -10.4375 23.3125 Z M59.5625 23.3125 C60.5625 25.3125 60.5625 25.3125 60.5625 25.3125 Z " fill="#0B0B0B" transform="translate(168.4375,334.6875)"/>
<path d="M0 0 C2.39592455 1.83687549 2.88412648 3.33344046 3.39453125 6.26953125 C3.65953028 8.51318969 3.86029079 10.74538236 4 13 C4.680625 12.360625 5.36125 11.72125 6.0625 11.0625 C9.60190098 8.57738867 11.68756861 8.07435227 16 8 C21.2295113 9.62295178 24.41554297 11.88841694 28 16 C30.37169386 20.74338773 29.36085867 28.01018487 28 33 C26.93385624 36.19843127 25.90860037 37.41690268 23.078125 39.203125 C18.62874921 40.90927662 13.65514403 40.6954522 9 40 C6.12890625 38.47265625 6.12890625 38.47265625 4 37 C3.64579483 37.48764832 3.29158966 37.97529663 2.926651 38.47772217 C0.06457584 40.73909362 -2.21383613 40.36699312 -5.82641602 40.35644531 C-6.51614502 40.35848969 -7.20587402 40.36053406 -7.91650391 40.36264038 C-10.19590788 40.36564807 -12.47458829 40.34717362 -14.75390625 40.328125 C-16.33666301 40.32506743 -17.91942246 40.32319129 -19.50218201 40.32244873 C-22.8185354 40.31784588 -26.13464593 40.30341993 -29.45092773 40.28125 C-33.70712792 40.25294457 -37.96313697 40.24203616 -42.21942234 40.2375679 C-45.48701397 40.23341625 -48.75456676 40.22360128 -52.0221386 40.21169281 C-53.59186428 40.20598622 -55.1615937 40.2012288 -56.73132515 40.19742584 C-58.92194339 40.19057 -61.1124089 40.17694144 -63.30297852 40.16113281 C-64.55079605 40.15430481 -65.79861359 40.14747681 -67.08424377 40.14044189 C-70 40 -70 40 -72 39 C-72 38.34 -72 37.68 -72 37 C-72.66 37 -73.32 37 -74 37 C-76.15305957 33.14243493 -77.39253254 30.44870215 -77 26 C-77.86625 26.495 -78.7325 26.99 -79.625 27.5 C-83.10749623 29.0477761 -85.24759458 29.26802896 -89 29 C-88.96519531 29.62648438 -88.93039063 30.25296875 -88.89453125 30.8984375 C-88.86746094 31.71570313 -88.84039062 32.53296875 -88.8125 33.375 C-88.77769531 34.18710937 -88.74289063 34.99921875 -88.70703125 35.8359375 C-88.80371094 36.55007813 -88.90039062 37.26421875 -89 38 C-92.20380017 40.13586678 -93.01939967 40.23132175 -96.6875 40.125 C-97.49574219 40.10695313 -98.30398437 40.08890625 -99.13671875 40.0703125 C-99.75160156 40.04710937 -100.36648437 40.02390625 -101 40 C-101 39.34 -101 38.68 -101 38 C-101.66 38 -102.32 38 -103 38 C-103.07426356 33.37357074 -103.12865492 28.74748991 -103.16479492 24.12060547 C-103.17986364 22.54730178 -103.20032245 20.97403998 -103.22631836 19.40087891 C-103.26278738 17.13693904 -103.27974508 14.87355543 -103.29296875 12.609375 C-103.30845261 11.90818542 -103.32393646 11.20699585 -103.33988953 10.48455811 C-103.34093382 7.44105472 -103.14391632 5.27813823 -101.73510742 2.55541992 C-99.64385731 0.6807394 -98.72288077 0.49662186 -95.9453125 0.50390625 C-95.16542969 0.50326172 -94.38554687 0.50261719 -93.58203125 0.50195312 C-92.77121094 0.52193359 -91.96039063 0.54191406 -91.125 0.5625 C-90.32191406 0.55541016 -89.51882812 0.54832031 -88.69140625 0.54101562 C-84.03463811 0.59088217 -80.73376864 0.90868143 -77 4 C-77 4.66 -77 5.32 -77 6 C-76.34 6 -75.68 6 -75 6 C-74.67 6.66 -74.34 7.32 -74 8 C-72.10466658 8.46523063 -72.10466658 8.46523063 -69.9375 8.625 C-68.638125 8.74875 -67.33875 8.8725 -66 9 C-66 9.66 -66 10.32 -66 11 C-64.68 11.66 -63.36 12.32 -62 13 C-61.40435493 12.02404877 -61.40435493 12.02404877 -60.79667664 11.02838135 C-59 9 -59 9 -56.81697083 8.51898193 C-55.54789131 8.5323056 -55.54789131 8.5323056 -54.25317383 8.54589844 C-53.29240433 8.54620056 -52.33163483 8.54650269 -51.3417511 8.54681396 C-50.30729355 8.56745911 -49.272836 8.58810425 -48.20703125 8.609375 C-46.61528328 8.61786469 -46.61528328 8.61786469 -44.99137878 8.62652588 C-41.59796265 8.64893857 -38.20559765 8.69914551 -34.8125 8.75 C-32.51368711 8.7700586 -30.21485769 8.78831048 -27.91601562 8.8046875 C-22.27698436 8.8488193 -16.63856727 8.91578028 -11 9 C-10.896875 7.88625 -10.79375 6.7725 -10.6875 5.625 C-10.460625 4.42875 -10.23375 3.2325 -10 2 C-6.29584707 -0.46943529 -4.37855495 -0.46913089 0 0 Z M-63 19 C-62 22 -62 22 -62 22 Z M-29 23 C-29.99 24.485 -29.99 24.485 -31 26 C-30.01 25.67 -29.02 25.34 -28 25 C-28.33 24.34 -28.66 23.68 -29 23 Z " fill="#0C0C0C" transform="translate(294,387)"/>
<path d="M0 0 C0.680625 -0.00515625 1.36125 -0.0103125 2.0625 -0.015625 C4 0.25 4 0.25 7 2.25 C7.6875 5.375 7.6875 5.375 8 8.25 C8.45375 7.30125 8.9075 6.3525 9.375 5.375 C11 2.25 11 2.25 13 0.25 C20.04974619 -0.4322335 20.04974619 -0.4322335 23.4375 2 C24.94398898 4.16934413 25.62951193 5.6565835 26 8.25 C26.268125 7.30125 26.53625 6.3525 26.8125 5.375 C28 2.25 28 2.25 31 0.25 C37.01987353 -0.28748871 37.01987353 -0.28748871 39.9375 1.3125 C41.55479605 4.26168691 41.18630138 6.95867559 41 10.25 C42.175625 9.734375 43.35125 9.21875 44.5625 8.6875 C48.77000059 7.13190999 51.59476653 7.04857269 56 8.25 C58.46063818 9.44654563 60.68018872 10.78236429 63 12.25 C63.33 11.26 63.66 10.27 64 9.25 C66.64110521 7.9294474 68.9555841 8.23414623 71.8515625 8.296875 C74.25614531 8.31054896 74.25614531 8.31054896 77.5625 7.5 C82.34565115 7.15213446 84.1393061 8.4703004 88 11.25 C88.94148531 14.07445592 89.07311695 15.39171618 88.87890625 18.26171875 C88.83056641 19.01904297 88.78222656 19.77636719 88.73242188 20.55664062 C88.67634766 21.34232422 88.62027344 22.12800781 88.5625 22.9375 C88.51029297 23.73478516 88.45808594 24.53207031 88.40429688 25.35351562 C88.27480978 27.31936522 88.13809959 29.28473665 88 31.25 C85.69 31.25 83.38 31.25 81 31.25 C80.67 25.64 80.34 20.03 80 14.25 C78.02 14.91 76.04 15.57 74 16.25 C73.67 18.23 73.34 20.21 73 22.25 C74.65 21.92 76.3 21.59 78 21.25 C77.34 26.53 76.68 31.81 76 37.25 C68.125 39.5 68.125 39.5 64 38.25 C64 37.26 64 36.27 64 35.25 C62.948125 35.889375 61.89625 36.52875 60.8125 37.1875 C56.01150446 40.10575219 52.14620216 40.54980582 46.6875 39.3125 C45.80449219 39.11785156 44.92148437 38.92320312 44.01171875 38.72265625 C43.01591797 38.48869141 43.01591797 38.48869141 42 38.25 C42 37.59 42 36.93 42 36.25 C41.01 35.92 40.02 35.59 39 35.25 C39 34.59 39 33.93 39 33.25 C38.34 33.25 37.68 33.25 37 33.25 C37 32.26 37 31.27 37 30.25 C36.34 30.25 35.68 30.25 35 30.25 C34.67 32.56 34.34 34.87 34 37.25 C28.4584498 39.21263236 24.79141983 39.26603857 19 38.25 C18.34 36.27 17.68 34.29 17 32.25 C16.67 33.219375 16.34 34.18875 16 35.1875 C14 38.25 14 38.25 12.16015625 38.90625 C8.5696127 39.38766366 5.43782476 39.52027269 2 38.25 C-1.76097155 32.74679058 -3.20208325 25.52110882 -4.75 19.125 C-4.97042969 18.27035156 -5.19085938 17.41570312 -5.41796875 16.53515625 C-6.61913529 11.67826545 -7.54576109 7.25281 -7 2.25 C-4.00261059 0.25174039 -3.36652492 -0.02550398 0 0 Z M49 22.25 C49 23.24 49 24.23 49 25.25 C50.32 24.92 51.64 24.59 53 24.25 C52.67 23.59 52.34 22.93 52 22.25 C51.01 22.25 50.02 22.25 49 22.25 Z M76 22.25 C77 24.25 77 24.25 77 24.25 Z " fill="#0D0D0D" transform="translate(252,335.75)"/>
<path d="M0 0 C0.33 0.66 0.66 1.32 1 2 C0.67 2.66 0.34 3.32 0 4 C-0.72984298 11.66933357 -0.41724482 18.49647629 4 25 C8.06035635 29.38066288 12.2424589 32.62547819 18.25 33.44140625 C26.88613965 33.72028159 31.90404791 32.82585131 39.12109375 27.53125 C42.03050017 25.98377738 43.02516357 25.82526134 46.17993164 25.90429688 C47.4405542 25.93587891 48.70117676 25.96746094 50 26 C50.00586624 26.83271927 50.01173248 27.66543854 50.01777649 28.52339172 C50.07565109 36.36635235 50.14769735 44.20902659 50.23571491 52.05170918 C50.28046588 56.08385029 50.31971128 60.11588927 50.34643555 64.14819336 C50.37242182 68.03873163 50.41279023 71.92887783 50.46318626 75.81917381 C50.47988681 77.30429398 50.49138123 78.78948201 50.49761391 80.274683 C50.5072209 82.35321905 50.53523621 84.43074485 50.56762695 86.5090332 C50.58428154 88.28441216 50.58428154 88.28441216 50.60127258 90.09565735 C50.80005721 92.94066304 50.80005721 92.94066304 52.11560059 94.87866211 C54.94216102 96.56064592 57.30940008 96.40212015 60.58276367 96.43237305 C61.57828499 96.44766052 61.57828499 96.44766052 62.59391785 96.46325684 C64.78535357 96.49342625 66.9763525 96.50265828 69.16796875 96.51171875 C70.68827268 96.52856261 72.20856265 96.54671246 73.72883606 96.56611633 C77.72858318 96.61365474 81.72827374 96.643439 85.72821045 96.66955566 C89.81045707 96.69934199 93.89250873 96.74587887 97.97460938 96.79101562 C105.98297722 96.87709234 113.99136274 96.94441793 122 97 C121.435339 92.97145219 120.84429085 88.98022828 120 85 C123.78880724 89.52212477 125.13898837 92.29789539 125.0625 98.1875 C125.05347656 99.08855469 125.04445312 99.98960937 125.03515625 100.91796875 C125.01775391 101.94857422 125.01775391 101.94857422 125 103 C121.02230057 104.86891434 117.84722288 105.25701409 113.46899414 105.2746582 C112.16736832 105.28419022 110.86574249 105.29372223 109.52467346 105.30354309 C108.11150078 105.30328165 106.69832809 105.30234451 105.28515625 105.30078125 C103.82693867 105.3046714 102.36872221 105.30900673 100.9105072 105.31376648 C97.85835085 105.32121577 94.8063102 105.32094678 91.75415039 105.31567383 C87.85248973 105.30988004 83.95130391 105.32681383 80.04972172 105.3500185 C77.03931431 105.36478553 74.02902051 105.36562354 71.0185833 105.36250877 C69.58054094 105.36302047 68.14249198 105.36822965 66.70448494 105.37832069 C64.68982728 105.39072441 62.67507328 105.38193216 60.66040039 105.37231445 C59.51632217 105.37294388 58.37224396 105.3735733 57.1934967 105.3742218 C53.49724831 104.94108632 51.13314653 103.99728626 48 102 C45.57557212 98.79396536 45.72755351 95.59953089 45.68115234 91.67089844 C45.66128265 90.38987244 45.64141296 89.10884644 45.62094116 87.78900146 C45.60906564 86.3957944 45.59740273 85.0025855 45.5859375 83.609375 C45.56722168 82.1801848 45.54764795 80.75100559 45.5272522 79.32183838 C45.47596852 75.56708264 45.43632284 71.81229108 45.39910889 68.05737305 C45.35904551 64.2230547 45.30796385 60.38888483 45.2578125 56.5546875 C45.16109785 49.03656028 45.07667899 41.5183611 45 34 C44.01 34 43.02 34 42 34 C42 34.66 42 35.32 42 36 C40.3970947 36.81498562 38.79262722 37.62689927 37.1875 38.4375 C36.29417969 38.88996094 35.40085938 39.34242188 34.48046875 39.80859375 C28.1916947 42.82918601 21.84730284 42.88488221 15 42 C10.61702306 40.17813146 6.69471568 37.99096031 3 35 C3 34.34 3 33.68 3 33 C2.01 32.67 1.02 32.34 0 32 C-4.96322168 23.374263 -5.64674648 14.72137325 -3.765625 5.1640625 C-2.91738058 2.76647368 -1.91789028 1.6333681 0 0 Z " fill="#100F0F" transform="translate(125,200)"/>
<path d="M0 0 C4.1851322 3.23396579 6.49163157 6.97417602 8 12 C8.31170667 14.78849278 8.20326615 17.45639346 8 20.25 C7.98066406 20.95640625 7.96132812 21.6628125 7.94140625 22.390625 C7.8125 24.453125 7.8125 24.453125 7 28 C3.82633453 30.71117151 2.52539668 31.01781006 -1.6875 30.875 C-5 30 -5 30 -7 27 C-7.53625 27.66 -8.0725 28.32 -8.625 29 C-11 31 -11 31 -14 31.4375 C-17.41821253 30.93901067 -18.63046225 30.49105251 -21 28 C-21.390625 24.64453125 -21.390625 24.64453125 -21.25 20.8125 C-21.21390625 19.54019531 -21.1778125 18.26789063 -21.140625 16.95703125 C-21.09421875 15.98121094 -21.0478125 15.00539063 -21 14 C-21.66 14 -22.32 14 -23 14 C-22.98839844 14.73605469 -22.97679687 15.47210938 -22.96484375 16.23046875 C-22.95582031 17.20628906 -22.94679687 18.18210937 -22.9375 19.1875 C-22.92589844 20.15042969 -22.91429687 21.11335938 -22.90234375 22.10546875 C-22.99513378 24.85576513 -23.37888315 27.32479591 -24 30 C-25.58129029 30.22331199 -27.16521089 30.42804644 -28.75 30.625 C-30.07257813 30.79902344 -30.07257813 30.79902344 -31.421875 30.9765625 C-34.2653418 31.0024122 -35.59704754 30.45221909 -38 29 C-38.66 28.67 -39.32 28.34 -40 28 C-39.19175781 27.41863281 -38.38351563 26.83726562 -37.55078125 26.23828125 C-33.46995478 22.15745478 -34.21730527 16.6087478 -34.1875 11.1875 C-34.16236328 10.11306641 -34.13722656 9.03863281 -34.11132812 7.93164062 C-34.05256705 5.28739229 -34.01620624 2.64479512 -34 0 C-33.2886792 0.00523682 -32.5773584 0.01047363 -31.84448242 0.01586914 C-28.62549725 0.03664018 -25.40652617 0.04966058 -22.1875 0.0625 C-21.06794922 0.07087891 -19.94839844 0.07925781 -18.79492188 0.08789062 C-17.72177734 0.09111328 -16.64863281 0.09433594 -15.54296875 0.09765625 C-14.55321045 0.10289307 -13.56345215 0.10812988 -12.54370117 0.11352539 C-1.5604388 -0.37665764 -1.5604388 -0.37665764 0 0 Z M-7 14 C-6 16 -6 16 -6 16 Z " fill="#0F0F0F" transform="translate(235,344)"/>
<path d="M0 0 C1.258125 -0.04125 2.51625 -0.0825 3.8125 -0.125 C4.52019531 -0.14820313 5.22789062 -0.17140625 5.95703125 -0.1953125 C8 0 8 0 11 2 C11.6875 5.125 11.6875 5.125 12 8 C12.45375 7.05125 12.9075 6.1025 13.375 5.125 C15 2 15 2 17 0 C24.04974619 -0.6822335 24.04974619 -0.6822335 27.4375 1.75 C28.94398898 3.91934413 29.62951193 5.4065835 30 8 C30.268125 7.05125 30.53625 6.1025 30.8125 5.125 C32 2 32 2 35 0 C38.5625 -0.25 38.5625 -0.25 42 0 C42.66 0.66 43.32 1.32 44 2 C43.5373877 2.71188477 43.07477539 3.42376953 42.59814453 4.15722656 C41.01343903 6.97609471 40.19987697 9.35707019 39.4296875 12.484375 C39.04490234 14.00998047 39.04490234 14.00998047 38.65234375 15.56640625 C38.26755859 17.14228516 38.26755859 17.14228516 37.875 18.75 C37.35451973 20.84969359 36.83123708 22.94869521 36.3046875 25.046875 C35.9641333 26.43664551 35.9641333 26.43664551 35.61669922 27.85449219 C35 30 35 30 34 31 C31.32941149 31.14115161 28.67567762 31.04247107 26 31 C25.32873871 28.5636811 24.66283646 26.12611117 24 23.6875 C23.80921875 22.99720703 23.6184375 22.30691406 23.421875 21.59570312 C22.62283816 18.64212051 22 16.07440781 22 13 C21.34 13 20.68 13 20 13 C19.896875 14.299375 19.79375 15.59875 19.6875 16.9375 C19.151692 21.90160353 17.75069775 26.34248334 16 31 C13.36 31 10.72 31 8 31 C5.77884495 23.99390987 3.66617055 16.97022133 1.75 9.875 C1.41484375 8.63492187 1.0796875 7.39484375 0.734375 6.1171875 C0 3 0 3 0 0 Z " fill="#F7F7F7" transform="translate(248,336)"/>
<path d="M0 0 C1.47673035 1.10501099 1.47673035 1.10501099 3 3 C3.3742218 5.83273315 3.3742218 5.83273315 3.37231445 9.31982422 C3.38165764 11.27733109 3.38165764 11.27733109 3.39118958 13.27438354 C3.38249969 14.70115539 3.3731815 16.12792354 3.36328125 17.5546875 C3.3627625 19.01815795 3.36328078 20.48162911 3.36479187 21.94509888 C3.36470214 25.01347244 3.35427435 28.0815833 3.33618164 31.14990234 C3.31353437 35.07630931 3.31294303 39.00233108 3.31969929 42.92878532 C3.32304743 45.95203044 3.31639264 48.97518835 3.30657005 51.9984169 C3.3027293 53.44564482 3.30156516 54.89288246 3.3031559 56.34011459 C3.3035283 58.36722752 3.28939307 60.39432731 3.2746582 62.42138672 C3.26774712 64.14988358 3.26774712 64.14988358 3.26069641 65.91329956 C2.90339864 70.14378044 1.84302899 72.95348125 -0.8125 76.25 C-4.66431653 79.33145323 -8.99749441 79.12558193 -13.78076172 79.12939453 C-14.91899384 79.13254669 -16.05722595 79.13569885 -17.22994995 79.13894653 C-18.45086334 79.1369223 -19.67177673 79.13489807 -20.9296875 79.1328125 C-22.19338165 79.13376923 -23.45707581 79.13472595 -24.75906372 79.13571167 C-27.43039382 79.13639175 -30.10163224 79.13505327 -32.77294922 79.13037109 C-36.18111288 79.12468574 -39.58919758 79.12794886 -42.99735832 79.13394356 C-46.26647079 79.13844743 -49.535574 79.13528376 -52.8046875 79.1328125 C-54.02155243 79.13483673 -55.23841736 79.13686096 -56.49215698 79.13894653 C-71.37462288 79.09795883 -71.37462288 79.09795883 -74.9140625 76.70703125 C-77.00827676 73.41504696 -76.49703927 69.74691146 -76 66 C-74.5 62.4375 -74.5 62.4375 -73 60 C-72.34 60.33 -71.68 60.66 -71 61 C-71.99 65.95 -71.99 65.95 -73 71 C-64.46359123 70.91560493 -55.9273908 70.82072502 -47.39125443 70.71247292 C-43.42753853 70.66253574 -39.46384895 70.61620556 -35.5 70.578125 C-31.6743701 70.54123948 -27.84896174 70.49487082 -24.02352142 70.44193649 C-22.56433754 70.42340987 -21.1051062 70.40829549 -19.64585114 70.39665604 C-17.60123529 70.37976362 -15.5571249 70.35072247 -13.51269531 70.31884766 C-12.34909485 70.30552399 -11.18549438 70.29220032 -9.9866333 70.2784729 C-7.08777333 70.00818396 -5.40362759 69.60450095 -3 68 C-1.61180988 65.22361976 -1.84447078 62.92860873 -1.81054688 59.82202148 C-1.79382935 58.52405136 -1.77711182 57.22608124 -1.7598877 55.88877869 C-1.74986473 54.84561147 -1.74986473 54.84561147 -1.73963928 53.78137016 C-1.71863438 51.60913667 -1.69161154 49.43705309 -1.66296387 47.26490784 C-1.59308456 41.87122015 -1.53365785 36.47742617 -1.47393799 31.08361816 C-1.42308444 26.52529082 -1.36828946 21.96704484 -1.30812073 17.40883064 C-1.28146423 15.26333631 -1.26070138 13.11783471 -1.2401123 10.97227478 C-1.22339478 9.67745682 -1.20667725 8.38263885 -1.18945312 7.04858398 C-1.17066101 5.32888649 -1.17066101 5.32888649 -1.15148926 3.57444763 C-1 1 -1 1 0 0 Z " fill="#060606" transform="translate(347,226)"/>
<path d="M0 0 C13.53 0 27.06 0 41 0 C41 6 41 6 39.28515625 8.265625 C38.55167969 8.92046875 37.81820312 9.5753125 37.0625 10.25 C34.11870561 12.81192697 34.11870561 12.81192697 32 16 C34.97 16.33 37.94 16.66 41 17 C41 18.98 41 20.96 41 23 C27.47 23 13.94 23 0 23 C0 17 0 17 2.1875 14.5 C3.5796875 13.2625 3.5796875 13.2625 5 12 C6.7216385 10.04105457 8.35321984 8.02318705 10 6 C6.7 6 3.4 6 0 6 C0 4.02 0 2.04 0 0 Z M21 14 C20.01 15.485 20.01 15.485 19 17 C19.99 16.67 20.98 16.34 22 16 C21.67 15.34 21.34 14.68 21 14 Z " fill="#F9F9F9" transform="translate(244,396)"/>
<path d="M0 0 C8 0 8 0 10.9375 1.75 C12.9610478 3.95750669 13.6858889 5.06829636 14 8 C14.66 8 15.32 8 16 8 C16 8.66 16 9.32 16 10 C16.99 10 17.98 10 19 10 C19.11214844 9.40703125 19.22429687 8.8140625 19.33984375 8.203125 C20.45569415 4.4792219 22.79208298 2.12713811 26 0 C29.02188165 -0.71270794 30.82736466 -0.46809374 34 0 C36 1.5 36 1.5 37 3 C36.34 3.33 35.68 3.66 35 4 C34.67 12.91 34.34 21.82 34 31 C31.36 31 28.72 31 26 31 C25.67 25.39 25.34 19.78 25 14 C22.69 16.97 20.38 19.94 18 23 C13.11261969 20.55630984 11.97285462 18.45928193 9 14 C8.67 19.61 8.34 25.22 8 31 C5.36 31 2.72 31 0 31 C0 20.77 0 10.54 0 0 Z " fill="#EEEEEE" transform="translate(83,336)"/>
<path d="M0 0 C0.66 0 1.32 0 2 0 C4.59227502 6.90801392 4.28829241 13.7671769 4.265625 21.0703125 C4.26697432 22.43838571 4.26891707 23.80645845 4.27142334 25.17453003 C4.27436007 28.03062542 4.27012263 30.88659509 4.26074219 33.74267578 C4.24932669 37.39543174 4.25592939 41.04789441 4.26788712 44.70063972 C4.27512659 47.52141516 4.2728086 50.34212146 4.26763153 53.16289902 C4.26565789 55.16199689 4.27170751 57.16109749 4.27789307 59.16018677 C4.27158875 60.37850189 4.26528442 61.59681702 4.25878906 62.85205078 C4.25719788 63.92125763 4.25560669 64.99046448 4.25396729 66.09207153 C3.99218025 69.08953624 3.26261966 71.28469016 2 74 C-6.520481 74.41600902 -11.89112937 73.9723745 -18.9375 68.875 C-22.62925827 66.61473983 -25.707364 65.54061264 -30 66 C-34.98197229 67.78971145 -39.0253329 69.53799935 -42 74 C-42.66 74 -43.32 74 -44 74 C-44.144375 74.7425 -44.28875 75.485 -44.4375 76.25 C-45 79 -45 79 -45.5625 80.9375 C-46.81673824 86.85033739 -45.53214927 90.72468902 -43 96 C-46 95 -46 95 -48.1875 91.75 C-50.84583092 86.02119382 -50.88141929 80.17766677 -50 74 C-47.48434793 67.15430963 -41.82996085 62.27727402 -35.6875 58.625 C-26.85116208 56.57003769 -20.66060712 58.39263306 -13 63 C-11.700625 63.86625 -11.700625 63.86625 -10.375 64.75 C-7.25478332 66.57034591 -7.25478332 66.57034591 0 67 C0 44.89 0 22.78 0 0 Z " fill="#0D0C0C" transform="translate(346,130)"/>
<path d="M0 0 C0.33 0 0.66 0 1 0 C1.16435547 1.03060547 1.16435547 1.03060547 1.33203125 2.08203125 C1.49058594 2.98308594 1.64914063 3.88414062 1.8125 4.8125 C1.96332031 5.70582031 2.11414063 6.59914063 2.26953125 7.51953125 C3.10761192 10.36542015 3.62422859 11.25297496 6 13 C9.0487338 13.47563563 9.0487338 13.47563563 12.58276367 13.43237305 C13.57828499 13.44766052 13.57828499 13.44766052 14.59391785 13.46325684 C16.78535357 13.49342625 18.9763525 13.50265828 21.16796875 13.51171875 C22.68827268 13.52856261 24.20856265 13.54671246 25.72883606 13.56611633 C29.72858318 13.61365474 33.72827374 13.643439 37.72821045 13.66955566 C41.81045707 13.69934199 45.89250873 13.74587887 49.97460938 13.79101562 C57.98297722 13.87709234 65.99136274 13.94441793 74 14 C73.435339 9.97145219 72.84429085 5.98022828 72 2 C75.78880724 6.52212477 77.13898837 9.29789539 77.0625 15.1875 C77.05347656 16.08855469 77.04445313 16.98960937 77.03515625 17.91796875 C77.02355469 18.60503906 77.01195312 19.29210937 77 20 C73.02230057 21.86891434 69.84722288 22.25701409 65.46899414 22.2746582 C63.5165554 22.28895622 63.5165554 22.28895622 61.52467346 22.30354309 C60.11150078 22.30328165 58.69832809 22.30234451 57.28515625 22.30078125 C55.82693867 22.3046714 54.36872221 22.30900673 52.9105072 22.31376648 C49.85835085 22.32121577 46.8063102 22.32094678 43.75415039 22.31567383 C39.85248973 22.30988004 35.95130391 22.32681383 32.04972172 22.3500185 C29.03931431 22.36478553 26.02902051 22.36562354 23.0185833 22.36250877 C21.58054094 22.36302047 20.14249198 22.36822965 18.70448494 22.37832069 C16.68982728 22.39072441 14.67507328 22.38193216 12.66040039 22.37231445 C10.94428307 22.37325859 10.94428307 22.37325859 9.1934967 22.3742218 C5.55179151 21.94747783 3.13780984 20.86573107 0 19 C-2.55890335 15.6953591 -2.20618148 12.30907377 -2.125 8.25 C-2.09792969 6.49429687 -2.09792969 6.49429687 -2.0703125 4.703125 C-2.04710937 3.81109375 -2.02390625 2.9190625 -2 2 C-1.34 2 -0.68 2 0 2 C0 1.34 0 0.68 0 0 Z " fill="#070707" transform="translate(173,283)"/>
<path d="M0 0 C2.31 0 4.62 0 7 0 C7 10.56 7 21.12 7 32 C4.36 32 1.72 32 -1 32 C-1.99 32.495 -1.99 32.495 -3 33 C-6.85019902 33.43752262 -8.7263638 33.14486622 -12.1875 31.3125 C-15.07089203 28.941711 -16.56479388 27.42854796 -18 24 C-18.39624567 19.56204854 -18.46068527 15.79355645 -16 12 C-11.96883271 9.28295773 -8.89991821 8 -4 8 C-3.71125 7.05125 -3.4225 6.1025 -3.125 5.125 C-2 2 -2 2 0 0 Z M-7 23 C-7 23.99 -7 24.98 -7 26 C-5.68 25.67 -4.36 25.34 -3 25 C-3.33 24.34 -3.66 23.68 -4 23 C-4.99 23 -5.98 23 -7 23 Z " fill="#F8F8F8" transform="translate(165,335)"/>
<path d="M0 0 C6.40279208 3.37854839 6.40279208 3.37854839 7.7265625 6.97265625 C8.10269486 9.76140905 7.47957746 12.24242959 7 15 C7.33 15.66 7.66 16.32 8 17 C8.68940754 24.00897666 8.68940754 24.00897666 6 27.875 C1.23429065 31.25071079 -3.1294074 32 -9 32 C-9 31.34 -9 30.68 -9 30 C-9.8353125 29.9071875 -9.8353125 29.9071875 -10.6875 29.8125 C-14.12250048 28.60560794 -15.78136672 26.8525285 -18 24 C-17.87695017 20.86222932 -17.39649044 18.79298089 -16 16 C-13.67843403 15.59270772 -11.3431213 15.25561323 -9 15 C-9 15.66 -9 16.32 -9 17 C-6.69 17.33 -4.38 17.66 -2 18 C-2 17.01 -2 16.02 -2 15 C-3.051875 14.938125 -4.10375 14.87625 -5.1875 14.8125 C-9.71810504 13.84696122 -11.32834138 12.75701994 -14 9 C-14 5.66737533 -13.64351838 3.84827423 -11.625 1.1875 C-7.72460904 -1.6627857 -4.49222078 -1.04818485 0 0 Z " fill="#F4F4F4" transform="translate(426,344)"/>
<path d="M0 0 C2.31 0 4.62 0 7 0 C7 10.56 7 21.12 7 32 C4.36 32 1.72 32 -1 32 C-1.99 32.495 -1.99 32.495 -3 33 C-6.85019902 33.43752262 -8.7263638 33.14486622 -12.1875 31.3125 C-15.07089203 28.941711 -16.56479388 27.42854796 -18 24 C-18.25 20.4375 -18.25 20.4375 -18 17 C-17.95875 16.278125 -17.9175 15.55625 -17.875 14.8125 C-16.36652539 11.6878026 -13.99244216 10.60705227 -11 9 C-9.783125 8.896875 -8.56625 8.79375 -7.3125 8.6875 C-6.219375 8.460625 -5.12625 8.23375 -4 8 C-2.03816375 4.58991365 -2.03816375 4.58991365 -1 1 C-0.67 0.67 -0.34 0.34 0 0 Z M-6 22 C-6.33 23.32 -6.66 24.64 -7 26 C-5.68 25.67 -4.36 25.34 -3 25 C-3 24.34 -3 23.68 -3 23 C-3.99 22.67 -4.98 22.34 -6 22 Z " fill="#FAFAFA" transform="translate(360,335)"/>
<path d="M0 0 C2.866875 -0.061875 5.73375 -0.12375 8.6875 -0.1875 C10.02880981 -0.22846802 10.02880981 -0.22846802 11.3972168 -0.27026367 C16.05686492 -0.31886155 19.28142514 -0.14648642 23 3 C24.23811719 6.71435156 24.69096136 10.14713935 24 14 C21.82425584 16.69105198 20.08934144 18.45532928 17 20 C13.99525503 20.13559318 11.00931153 20.04299016 8 20 C8 23.63 8 27.26 8 31 C5.36 31 2.72 31 0 31 C0 20.77 0 10.54 0 0 Z " fill="#F5F5F5" transform="translate(194,388)"/>
<path d="M0 0 C3.6196875 -0.0928125 3.6196875 -0.0928125 7.3125 -0.1875 C8.44619019 -0.22846802 8.44619019 -0.22846802 9.6027832 -0.27026367 C12.52862948 -0.30670451 14.53699167 -0.30508301 17.015625 1.328125 C18 3 18 3 17.4375 5.9375 C16.65025956 9.01716016 16.65025956 9.01716016 18.5 11.25 C21.54523559 13.38166491 24.39821014 14.16881773 28 15 C28 15.99 28 16.98 28 18 C25.69 17.67 23.38 17.34 21 17 C21 16.34 21 15.68 21 15 C19.906875 15.165 18.81375 15.33 17.6875 15.5 C14 16 14 16 11 16 C11.01160156 16.67546875 11.02320313 17.3509375 11.03515625 18.046875 C11.04417969 18.93890625 11.05320312 19.8309375 11.0625 20.75 C11.07410156 21.63171875 11.08570313 22.5134375 11.09765625 23.421875 C11.00826198 25.7818838 10.66912821 27.74498524 10 30 C5.11682489 31.01871227 1.38456255 31.65965743 -3.0625 29.0625 C-4.031875 28.381875 -5.00125 27.70125 -6 27 C-6 25.35 -6 23.7 -6 22 C-5.34 21.67 -4.68 21.34 -4 21 C-2.86649466 18.98330173 -2.86649466 18.98330173 -2 17 C-1.67 17 -1.34 17 -1 17 C-0.67 11.39 -0.34 5.78 0 0 Z " fill="#0C0C0C" transform="translate(396,344)"/>
<path d="M0 0 C3.58038038 2.94854855 4.00807297 5.67816888 4.5 10.1875 C3.94858232 15.42596792 1.86272282 18.34103555 -2.1875 21.625 C-5.71391192 23.10117243 -8.07889 23.21618895 -11.875 22.75 C-16.21229795 20.49794145 -19.00897371 18.3113976 -20.875 13.75 C-21.42796693 9.35259634 -21.29452425 5.55546532 -18.875 1.75 C-12.7457812 -3.04114991 -7.01682986 -3.05079559 0 0 Z M-9.875 12.75 C-9.875 13.74 -9.875 14.73 -9.875 15.75 C-8.885 15.75 -7.895 15.75 -6.875 15.75 C-6.875 14.76 -6.875 13.77 -6.875 12.75 C-7.865 12.75 -8.855 12.75 -9.875 12.75 Z " fill="#F8F8F8" transform="translate(140.875,345.25)"/>
<path d="M0 0 C2.30910771 1.7971336 2.97785326 2.79457175 3.7109375 5.65625 C4.00404238 10.73673452 3.52923867 14.26218212 0.25 18.25 C-2.66123773 21.25468487 -4.99044886 22.01572487 -9.1875 22.5 C-13.95705912 22.02304409 -16.5451507 20.43505511 -19.9375 17.125 C-22.6885362 12.88381919 -21.94098632 8.85430187 -20.9375 4.125 C-20.375 1.8125 -20.375 1.8125 -18.9375 0.125 C-12.46368375 -3.52222042 -6.57498402 -3.61756149 0 0 Z M-10.9375 12.125 C-10.9375 13.115 -10.9375 14.105 -10.9375 15.125 C-9.6175 14.795 -8.2975 14.465 -6.9375 14.125 C-7.2675 13.465 -7.5975 12.805 -7.9375 12.125 C-8.9275 12.125 -9.9175 12.125 -10.9375 12.125 Z " fill="#F8F8F8" transform="translate(311.9375,345.875)"/>
<path d="M0 0 C6.65167838 3.10145724 11.36162163 7.15363209 14.16796875 14.08984375 C14.89727381 21.33553683 14.74713686 27.67716755 11.16796875 34.08984375 C10.83796875 34.08984375 10.50796875 34.08984375 10.16796875 34.08984375 C10.19117188 33.28160156 10.214375 32.47335937 10.23828125 31.640625 C10.25632812 30.57199219 10.274375 29.50335938 10.29296875 28.40234375 C10.31617188 27.34660156 10.339375 26.29085938 10.36328125 25.203125 C10.16517452 22.0453037 9.41232248 19.96557461 8.16796875 17.08984375 C8.16796875 16.09984375 8.16796875 15.10984375 8.16796875 14.08984375 C7.54921875 13.78046875 6.93046875 13.47109375 6.29296875 13.15234375 C4.91796875 12.46484375 3.54296875 11.77734375 2.16796875 11.08984375 C2.16796875 10.42984375 2.16796875 9.76984375 2.16796875 9.08984375 C-6.04341929 7.12870468 -11.96173939 6.85118383 -19.83203125 10.08984375 C-19.83203125 10.74984375 -19.83203125 11.40984375 -19.83203125 12.08984375 C-20.43015625 12.62609375 -21.02828125 13.16234375 -21.64453125 13.71484375 C-25.04711917 17.40908206 -26.79567698 21.36327324 -26.86328125 26.43359375 C-26.47375147 30.60712709 -25.67201921 34.28720197 -23.83203125 38.08984375 C-28.14644219 34.1160442 -30.42471035 31.15975708 -31.203125 25.29296875 C-31.36751328 17.98252517 -30.42658485 12.89046767 -25.83203125 7.08984375 C-18.47712107 -0.544159 -10.49655831 -3.37337667 0 0 Z " fill="#0E0E0E" transform="translate(268.83203125,246.91015625)"/>
<path d="M0 0 C2.64 0 5.28 0 8 0 C8 0.66 8 1.32 8 2 C9.32 2.66 10.64 3.32 12 4 C12.350625 3.34 12.70125 2.68 13.0625 2 C13.701875 1.34 14.34125 0.68 15 0 C17.31 0 19.62 0 22 0 C22 7.59 22 15.18 22 23 C19.36 23 16.72 23 14 23 C13.34 23.33 12.68 23.66 12 24 C9.1875 24.375 9.1875 24.375 6 24 C2.89835231 21.44975635 1.27433584 19.82300753 0 16 C-0.07051114 13.26134713 -0.09357765 10.54972412 -0.0625 7.8125 C-0.05798828 7.06291016 -0.05347656 6.31332031 -0.04882812 5.54101562 C-0.03706354 3.69397617 -0.01912865 1.84697787 0 0 Z M11 10 C12 13 12 13 12 13 Z " fill="#F3F3F3" transform="translate(220,396)"/>
<path d="M0 0 C2.51014632 2.51014632 2.8185728 4.38955991 3.7265625 7.8125 C4.0359375 8.97007812 4.3453125 10.12765625 4.6640625 11.3203125 C4.98117188 12.53460938 5.29828125 13.74890625 5.625 15 C5.94984375 16.21429688 6.2746875 17.42859375 6.609375 18.6796875 C9 27.69977679 9 27.69977679 9 30 C11.64 30 14.28 30 17 30 C18.32 24.06 19.64 18.12 21 12 C21.66 12 22.32 12 23 12 C24.32 17.94 25.64 23.88 27 30 C28.60875 29.79375 30.2175 29.5875 31.875 29.375 C34.6171875 29.0234375 34.6171875 29.0234375 37 29 C39 31 39 31 39.125 33.625 C39.08375 34.40875 39.0425 35.1925 39 36 C33.4584498 37.96263236 29.79141983 38.01603857 24 37 C23.34 35.02 22.68 33.04 22 31 C21.67 31.969375 21.34 32.93875 21 33.9375 C19 37 19 37 17.16015625 37.65625 C13.5696127 38.13766366 10.43782476 38.27027269 7 37 C3.23902845 31.49679058 1.79791675 24.27110882 0.25 17.875 C0.02957031 17.02035156 -0.19085938 16.16570312 -0.41796875 15.28515625 C-1.62939148 10.38679476 -2.24603117 6.04363908 -2 1 C-1.34 0.67 -0.68 0.34 0 0 Z " fill="#0C0C0C" transform="translate(247,337)"/>
<path d="M0 0 C5.50378837 3.36342622 5.50378837 3.36342622 6.62890625 7.07421875 C6.9375 9.25 6.9375 9.25 7 13 C6 14 6 14 2.62109375 14.09765625 C1.22652923 14.09098369 -0.16801743 14.07902532 -1.5625 14.0625 C-2.27341797 14.05798828 -2.98433594 14.05347656 -3.71679688 14.04882812 C-5.47790013 14.03700864 -7.23896036 14.01907263 -9 14 C-7.66566556 15.5689802 -7.66566556 15.5689802 -6 17 C-3.32520673 16.73904456 -1.39904859 16.1995243 1 15 C3.125 15.9375 3.125 15.9375 5 17 C4.875 18.8125 4.875 18.8125 4 21 C-0.03224214 23.62564604 -3.2168377 24.6975445 -8 24 C-12.31646551 21.71481238 -15.0976625 19.54447291 -17 15 C-17.39624567 10.56204854 -17.46068527 6.79355645 -15 3 C-10.12658671 -0.59514095 -5.92558667 -1.86546247 0 0 Z " fill="#F5F5F5" transform="translate(387,344)"/>
<path d="M0 0 C2.2520913 1.58480499 2.85176575 2.54100822 3.6875 5.1875 C3.84217124 7.8787795 3.77752071 10.48687883 3.6875 13.1875 C-1.2625 13.5175 -6.2125 13.8475 -11.3125 14.1875 C-8.06867684 16.35004877 -7.84750231 16.39942277 -4.3125 15.75 C-1.30387241 15.20867496 -0.34643222 15.17618926 2.6875 16.1875 C2.5625 18 2.5625 18 1.6875 20.1875 C-2.59960826 23.29565349 -6.126496 23.60464226 -11.19140625 22.8359375 C-14.53827665 21.81276902 -16.23132466 19.91904263 -18.3125 17.1875 C-19.20464652 14.51106043 -19.44790211 12.93365622 -19.4375 10.1875 C-19.44007813 9.506875 -19.44265625 8.82625 -19.4453125 8.125 C-19.3125 6.1875 -19.3125 6.1875 -18.3125 3.1875 C-17.6525 3.1875 -16.9925 3.1875 -16.3125 3.1875 C-16.3125 2.5275 -16.3125 1.8675 -16.3125 1.1875 C-10.33057265 -1.86450375 -6.53133521 -2.29479345 0 0 Z " fill="#F6F6F6" transform="translate(194.3125,344.8125)"/>
<path d="M0 0 C3.11697664 2.12219686 4.68609443 3.60148043 5.5234375 7.33203125 C5.78137087 9.54537845 5.90032409 11.77390473 6 14 C0.72 14 -4.56 14 -10 14 C-7.45283258 17.24135039 -7.45283258 17.24135039 -4.84375 17.0390625 C-4.0703125 16.90242188 -3.296875 16.76578125 -2.5 16.625 C0.67194323 16.08576965 1.85233559 15.95077853 5 17 C3.98929671 19.6645814 3.0600516 20.95195872 0.8125 22.75 C-2.78422101 24.34854267 -5.09371011 24.47971981 -9 24 C-13.37480612 22.0649896 -15.30073722 20.05490346 -17 15.6875 C-18.23145588 11.23080252 -18.00562362 8.26195019 -16 4 C-11.08151727 -0.79236778 -6.62288236 -1.83323449 0 0 Z " fill="#F7F7F7" transform="translate(314,396)"/>
<path d="M0 0 C0.33 0 0.66 0 1 0 C1 9.9 1 19.8 1 30 C3.64 30 6.28 30 9 30 C9 24.06 9 18.12 9 12 C14.625 17.625 14.625 17.625 17 21 C21.07127087 19.64290971 22.6884688 16.89055817 24.94921875 13.4609375 C25.29597656 12.97882813 25.64273438 12.49671875 26 12 C26.33 12 26.66 12 27 12 C27 17.94 27 23.88 27 30 C27.66 30.33 28.32 30.66 29 31 C27.02 32.485 27.02 32.485 25 34 C24.34 31.69 23.68 29.38 23 27 C22.34 27.66 21.68 28.32 21 29 C17.375 29.125 17.375 29.125 14 29 C13.67 28.34 13.34 27.68 13 27 C12.87625 28.27875 12.7525 29.5575 12.625 30.875 C12.25 34.75 12.25 34.75 10 37 C5.28386995 38.28621729 2.52116307 37.64176313 -2 36 C-2.04936883 31.19451403 -2.08570443 26.38917506 -2.10986328 21.58349609 C-2.11993254 19.94805328 -2.13358881 18.31262851 -2.15087891 16.67724609 C-2.17508705 14.3290563 -2.18647357 11.98110412 -2.1953125 9.6328125 C-2.21079636 8.53273361 -2.21079636 8.53273361 -2.22659302 7.41043091 C-2.22699368 5.60537303 -2.12212755 3.8009217 -2 2 C-1.34 1.34 -0.68 0.68 0 0 Z " fill="#0D0D0D" transform="translate(82,337)"/>
<path d="M0 0 C2.73828125 1.44140625 2.73828125 1.44140625 5 4 C5.47650082 7.29694277 5.15141156 10.44866006 4.8125 13.75 C4.74224609 14.63816406 4.67199219 15.52632813 4.59960938 16.44140625 C4.4230544 18.63068793 4.22250036 20.81498935 4 23 C1.69 23 -0.62 23 -3 23 C-3.33 17.39 -3.66 11.78 -4 6 C-5.98 6.66 -7.96 7.32 -10 8 C-10.33 12.95 -10.66 17.9 -11 23 C-13.31 23 -15.62 23 -18 23 C-18 15.41 -18 7.82 -18 0 C-15.36 0 -12.72 0 -10 0 C-6.18323682 -1.27225439 -3.91280349 -0.87700768 0 0 Z " fill="#F8F8F8" transform="translate(336,344)"/>
<path d="M0 0 C2.73828125 1.97265625 2.73828125 1.97265625 5 5 C5.45940346 8.1613437 5.15957225 11.14889897 4.8125 14.3125 C4.74224609 15.14845703 4.67199219 15.98441406 4.59960938 16.84570312 C4.42358516 18.89931893 4.21499495 20.95009767 4 23 C1.69 23 -0.62 23 -3 23 C-3.33 17.39 -3.66 11.78 -4 6 C-5.98 6.66 -7.96 7.32 -10 8 C-10.33 12.95 -10.66 17.9 -11 23 C-13.31 23 -15.62 23 -18 23 C-18 15.41 -18 7.82 -18 0 C-15.36 0 -12.72 0 -10 0 C-6.1544104 -1.2818632 -3.93271581 -0.94927623 0 0 Z " fill="#F8F8F8" transform="translate(235,344)"/>
<path d="M0 0 C6.6 0 13.2 0 20 0 C20 6.55559747 19.56885904 7.24102165 15.5 11.875 C14.24703125 13.32519531 14.24703125 13.32519531 12.96875 14.8046875 C12.3190625 15.52914063 11.669375 16.25359375 11 17 C12.27875 16.79375 13.5575 16.5875 14.875 16.375 C17.0546875 16.0234375 17.0546875 16.0234375 19 16 C19.66 16.66 20.32 17.32 21 18 C20.67 19.65 20.34 21.3 20 23 C13.4 23 6.8 23 0 23 C0 17 0 17 2.1875 14.5 C3.5796875 13.2625 3.5796875 13.2625 5 12 C6.7216385 10.04105457 8.35321984 8.02318705 10 6 C6.7 6 3.4 6 0 6 C0 4.02 0 2.04 0 0 Z " fill="#FAFAFA" transform="translate(244,396)"/>
<path d="M0 0 C1.5625 1 1.5625 1 3 3 C2.91654785 5.72054011 2.42801787 8.30348744 2 11 C2.33 11.66 2.66 12.32 3 13 C3.68940754 20.00897666 3.68940754 20.00897666 1 23.875 C-3.76570935 27.25071079 -8.1294074 28 -14 28 C-14 27.34 -14 26.68 -14 26 C-14.8353125 25.9071875 -14.8353125 25.9071875 -15.6875 25.8125 C-19.12250048 24.60560794 -20.78136672 22.8525285 -23 20 C-22.8125 16.6875 -22.8125 16.6875 -22 14 C-19 14 -19 14 -16.9375 15.9375 C-16.298125 16.618125 -15.65875 17.29875 -15 18 C-11.03230578 19.98384711 -6.14470514 19.32630565 -2 18 C-1.690625 16.1128125 -1.690625 16.1128125 -1.375 14.1875 C-1.25898438 13.47980469 -1.14296875 12.77210938 -1.0234375 12.04296875 C-0.80422152 9.68244176 -0.80422152 9.68244176 -3 7 C-5.17897492 5.99194445 -5.17897492 5.99194445 -7.625 5.3125 C-8.44226563 5.06113281 -9.25953125 4.80976563 -10.1015625 4.55078125 C-10.72804688 4.36902344 -11.35453125 4.18726563 -12 4 C-11.67 3.01 -11.34 2.02 -11 1 C-9.35 1.33 -7.7 1.66 -6 2 C-6 2.66 -6 3.32 -6 4 C-2.27385847 2.88145414 -2.27385847 2.88145414 0 0 Z " fill="#121212" transform="translate(431,348)"/>
<path d="M0 0 C1.1001215 3.52709477 1.08592136 6.74050843 1.02172852 10.42089844 C1.00163223 11.72194519 0.98153595 13.02299194 0.96083069 14.36346436 C0.93363624 15.77877009 0.90632537 17.1940736 0.87890625 18.609375 C0.85459336 20.06096643 0.83075039 21.51256581 0.80735779 22.96417236 C0.74463306 26.77827015 0.67553379 30.59222674 0.60510254 34.40618896 C0.53431398 38.30067534 0.46956006 42.19526155 0.40429688 46.08984375 C0.27543429 53.72667295 0.13983664 61.36336303 0 69 C-1.32 69 -2.64 69 -4 69 C-4.02317818 60.98529045 -4.04094303 52.97059493 -4.05181217 44.95586014 C-4.05702901 41.23423325 -4.0641049 37.51262931 -4.07543945 33.79101562 C-4.08631093 30.19893926 -4.09228588 26.60688495 -4.09487724 23.0147934 C-4.0967238 21.64488121 -4.10032966 20.27497023 -4.10573006 18.90506744 C-4.11299688 16.98522623 -4.11340854 15.06536278 -4.11352539 13.14550781 C-4.115746 12.05296692 -4.11796661 10.96042603 -4.12025452 9.83477783 C-4.01596014 7.37623073 -3.71450164 5.34237451 -3 3 C-2.34 3 -1.68 3 -1 3 C-0.67 2.01 -0.34 1.02 0 0 Z " fill="#161616" transform="translate(175,127)"/>
<path d="M0 0 C0.78375 0.04125 1.5675 0.0825 2.375 0.125 C3.90766582 3.19033164 3.47776471 6.39254272 3.4375 9.75 C3.43298828 10.45640625 3.42847656 11.1628125 3.42382812 11.890625 C3.41203875 13.63545275 3.39410324 15.380237 3.375 17.125 C5.685 17.125 7.995 17.125 10.375 17.125 C10.375 11.515 10.375 5.905 10.375 0.125 C11.035 0.125 11.695 0.125 12.375 0.125 C14.45023193 7.3272755 15.39843236 14.78370269 13.375 22.125 C10.07449761 24.83096745 8.89080819 25.16727936 4.5625 24.8125 C2.9846875 24.4721875 2.9846875 24.4721875 1.375 24.125 C1.271875 23.485625 1.16875 22.84625 1.0625 22.1875 C0.7221875 21.1665625 0.7221875 21.1665625 0.375 20.125 C-0.615 19.795 -1.605 19.465 -2.625 19.125 C-2.1609375 18.25875 -2.1609375 18.25875 -1.6875 17.375 C-0.69916636 15.28205816 -0.1081387 13.37964725 0.375 11.125 C-0.264375 10.815625 -0.90375 10.50625 -1.5625 10.1875 C-3.625 9.125 -3.625 9.125 -4.625 8.125 C-4.8125 5.1875 -4.8125 5.1875 -4.625 2.125 C-2.625 0.125 -2.625 0.125 0 0 Z M-0.625 8.125 C0.375 10.125 0.375 10.125 0.375 10.125 Z " fill="#101010" transform="translate(228.625,349.875)"/>
<path d="M0 0 C0.66 0 1.32 0 2 0 C4.49510112 6.72986618 4.2548665 13.26014261 4.1953125 20.37109375 C4.19106766 22.28729271 4.19106766 22.28729271 4.18673706 24.24220276 C4.17747007 27.61733578 4.15954066 30.99219204 4.1373291 34.36724854 C4.11676863 37.81967799 4.10771366 41.27213618 4.09765625 44.72460938 C4.07564914 51.48314863 4.04221125 58.24155836 4 65 C2.02 65.495 2.02 65.495 0 66 C0 44.22 0 22.44 0 0 Z " fill="#040404" transform="translate(346,130)"/>
<path d="M0 0 C2.31 0 4.62 0 7 0 C7 10.56 7 21.12 7 32 C4.69 32 2.38 32 0 32 C0 21.44 0 10.88 0 0 Z " fill="#F7F7F7" transform="translate(287,387)"/>
<path d="M0 0 C2.43375 -0.04125 4.8675 -0.0825 7.375 -0.125 C8.13989746 -0.14320801 8.90479492 -0.16141602 9.69287109 -0.18017578 C11.46287275 -0.1948117 13.23272455 -0.09928514 15 0 C15.66 0.66 16.32 1.32 17 2 C16.375 3.9375 16.375 3.9375 15 6 C11.875 6.75 11.875 6.75 9 7 C7.89485234 10.31544299 7.67892369 13.20410111 7.4375 16.6875 C7.35371094 17.86699219 7.26992188 19.04648437 7.18359375 20.26171875 C7.12300781 21.16535156 7.06242187 22.06898438 7 23 C4.69 23 2.38 23 0 23 C0 15.41 0 7.82 0 0 Z " fill="#F2F2F2" transform="translate(396,344)"/>
<path d="M0 0 C4.62 0 9.24 0 14 0 C14 1.98 14 3.96 14 6 C13.195625 6.12375 12.39125 6.2475 11.5625 6.375 C10.2940625 6.684375 10.2940625 6.684375 9 7 C7.5192152 9.9615696 7.64685963 12.83506295 7.4375 16.125 C7.35371094 17.40632813 7.26992187 18.68765625 7.18359375 20.0078125 C7.09271484 21.48894531 7.09271484 21.48894531 7 23 C4.69 23 2.38 23 0 23 C0 15.41 0 7.82 0 0 Z " fill="#F9F9F9" transform="translate(201,344)"/>
<path d="M0 0 C0.33 0 0.66 0 1 0 C1 9.9 1 19.8 1 30 C4.96 29.505 4.96 29.505 9 29 C9.66 28.01 10.32 27.02 11 26 C12.58867866 27.58867866 12.20794039 29.24689516 12.25 31.4375 C12.28867188 32.64212891 12.28867188 32.64212891 12.328125 33.87109375 C12.21984375 34.57363281 12.1115625 35.27617187 12 36 C8.79619983 38.13586678 7.98060033 38.23132175 4.3125 38.125 C3.50425781 38.10695313 2.69601563 38.08890625 1.86328125 38.0703125 C1.24839844 38.04710937 0.63351563 38.02390625 0 38 C0 37.34 0 36.68 0 36 C-0.66 36 -1.32 36 -2 36 C-2.04944066 31.35524041 -2.08573863 26.71063404 -2.10986328 22.06567383 C-2.11992041 20.48556856 -2.13356785 18.9054819 -2.15087891 17.32543945 C-2.17514022 15.0541525 -2.18648582 12.78311164 -2.1953125 10.51171875 C-2.20563507 9.80536789 -2.21595764 9.09901703 -2.22659302 8.3712616 C-2.22743775 4.67802208 -2.10720523 3.16080784 0 0 Z " fill="#141414" transform="translate(193,389)"/>
<path d="M0 0 C0.33 0 0.66 0 1 0 C1 9.9 1 19.8 1 30 C3.64 30 6.28 30 9 30 C11 31.5 11 31.5 12 33 C11.375 34.9375 11.375 34.9375 10 37 C5.34439828 38.48132782 2.48395863 37.61572811 -2 36 C-2.04936883 31.19451403 -2.08570443 26.38917506 -2.10986328 21.58349609 C-2.11993254 19.94805328 -2.13358881 18.31262851 -2.15087891 16.67724609 C-2.17508705 14.3290563 -2.18647357 11.98110412 -2.1953125 9.6328125 C-2.21079636 8.53273361 -2.21079636 8.53273361 -2.22659302 7.41043091 C-2.22699368 5.60537303 -2.12212755 3.8009217 -2 2 C-1.34 1.34 -0.68 0.68 0 0 Z " fill="#101010" transform="translate(82,337)"/>
<path d="M0 0 C0.66 0.33 1.32 0.66 2 1 C1.67644531 1.70382813 1.35289062 2.40765625 1.01953125 3.1328125 C-1.03325729 8.9057887 -1.08914389 16.14857125 1.25 21.875 C2.9417216 25.05382408 2.9417216 25.05382408 5.1875 27.9375 C7.58067516 31.98114079 7.3192614 34.37070974 7 39 C6.01 39 5.02 39 4 39 C1.98508284 36.92365244 0.53625532 34.44404256 -1 32 C-1.5775 31.0925 -2.155 30.185 -2.75 29.25 C-5.81669273 21.27659891 -5.78268 12.03344942 -2.9375 4 C-2.4734375 3.01 -2.4734375 3.01 -2 2 C-1.34 2 -0.68 2 0 2 C0 1.34 0 0.68 0 0 Z " fill="#0F0F0F" transform="translate(238,86)"/>
<path d="M0 0 C0.33 0 0.66 0 1 0 C1 21.45 1 42.9 1 65 C0.67 65 0.34 65 0 65 C-0.33 63.02 -0.66 61.04 -1 59 C-1.66 59 -2.32 59 -3 59 C-3 46.79 -3 34.58 -3 22 C-2.34 22.99 -1.68 23.98 -1 25 C-0.67 16.75 -0.34 8.5 0 0 Z " fill="#6E5755" transform="translate(174,226)"/>
<path d="M0 0 C4.8384313 4.004219 6.67587949 8.78069496 7.2890625 14.87109375 C7.54474374 23.99426509 6.12664097 31.05647356 0 38 C-0.33 38.99 -0.66 39.98 -1 41 C-2.32 41 -3.64 41 -5 41 C-5.46314723 35.21065961 -4.49002189 32.58688591 -1 28 C3.18260883 21.4937196 3.66562227 15.66574975 3 8 C1.65253476 4.54653852 1.65253476 4.54653852 0 2 C0 1.34 0 0.68 0 0 Z " fill="#121110" transform="translate(280,84)"/>
<path d="M0 0 C0.33 1.98 0.66 3.96 1 6 C1.69867188 5.90460938 2.39734375 5.80921875 3.1171875 5.7109375 C4.02726562 5.60007812 4.93734375 5.48921875 5.875 5.375 C6.77992188 5.25898438 7.68484375 5.14296875 8.6171875 5.0234375 C9.40351563 5.01570313 10.18984375 5.00796875 11 5 C13 7 13 7 13.125 9.625 C13.08375 10.40875 13.0425 11.1925 13 12 C7.4584498 13.96263236 3.79141983 14.01603857 -2 13 C-3.25 6.375 -3.25 6.375 -1 3 C-1.99 3 -2.98 3 -4 3 C-4 2.34 -4 1.68 -4 1 C-2 0 -2 0 0 0 Z " fill="#050505" transform="translate(273,361)"/>
<path d="M0 0 C0.33 0 0.66 0 1 0 C1 1.65 1 3.3 1 5 C4.3 5 7.6 5 11 5 C6.98185423 9.95259827 3.7285725 13.13571375 -2 16 C-4.3329866 16.04022391 -6.66706666 16.04320247 -9 16 C-7.66338822 13.04912279 -6.15046114 10.91682966 -3.9375 8.5625 C-1.47729639 5.78504386 -0.23131898 3.81676309 0 0 Z " fill="#080808" transform="translate(264,397)"/>
<path d="M0 0 C1.65 1.32 3.3 2.64 5 4 C4.34 5.65 3.68 7.3 3 9 C3.66 9.66 4.32 10.32 5 11 C3.4375 14 3.4375 14 1 17 C-2.93311127 17.63210717 -5.02467068 17.60020266 -8.4375 15.5 C-8.953125 15.005 -9.46875 14.51 -10 14 C-9.67 12.68 -9.34 11.36 -9 10 C-4.545 9.505 -4.545 9.505 0 9 C0 6.03 0 3.06 0 0 Z M5 2 C5.99 2.495 5.99 2.495 7 3 C6.01 3.495 6.01 3.495 5 4 C5 3.34 5 2.68 5 2 Z " fill="#1D1D1D" transform="translate(224,358)"/>
<path d="M0 0 C-0.66 5.28 -1.32 10.56 -2 16 C-9.875 18.25 -9.875 18.25 -14 17 C-14.6875 15.1875 -14.6875 15.1875 -15 13 C-14 11.25 -14 11.25 -12 10 C-8.3125 9.8125 -8.3125 9.8125 -5 10 C-5 7.03 -5 4.06 -5 1 C-2 0 -2 0 0 0 Z M-2 1 C-1 3 -1 3 -1 3 Z " fill="#141414" transform="translate(330,357)"/>
<path d="M0 0 C3.14357035 3.14357035 3.58999786 7.14758437 4.6875 11.375 C4.92533203 12.23867188 5.16316406 13.10234375 5.40820312 13.9921875 C5.62798828 14.8275 5.84777344 15.6628125 6.07421875 16.5234375 C6.27619873 17.28575684 6.47817871 18.04807617 6.6862793 18.83349609 C7.25194774 22.7399099 5.81925822 25.60405132 4 29 C2.07766705 24.62712549 0.96157993 20.19455001 -0.125 15.5625 C-0.30675781 14.82451172 -0.48851562 14.08652344 -0.67578125 13.32617188 C-1.66820606 9.12888648 -2.20663984 5.3463246 -2 1 C-1.34 0.67 -0.68 0.34 0 0 Z " fill="#121212" transform="translate(247,337)"/>
<path d="M0 0 C0.78375 0.04125 1.5675 0.0825 2.375 0.125 C3.95424842 3.28349685 3.51816514 6.6615128 3.5 10.125 C3.50386719 10.86234375 3.50773438 11.5996875 3.51171875 12.359375 C3.5016598 17.8716804 3.5016598 17.8716804 2.375 20.125 C0.725 20.125 -0.925 20.125 -2.625 20.125 C-1.97955571 16.63960083 -0.52365603 14.09680943 1.375 11.125 C0.75625 11.00125 0.1375 10.8775 -0.5 10.75 C-2.625 10.125 -2.625 10.125 -4.625 8.125 C-4.875 5.125 -4.875 5.125 -4.625 2.125 C-2.625 0.125 -2.625 0.125 0 0 Z M-0.625 8.125 C0.375 10.125 0.375 10.125 0.375 10.125 Z " fill="#050505" transform="translate(228.625,349.875)"/>
<path d="M0 0 C1.1001215 3.52709477 1.08592136 6.74050843 1.02172852 10.42089844 C1.00163223 11.72194519 0.98153595 13.02299194 0.96083069 14.36346436 C0.93363624 15.77877009 0.90632537 17.1940736 0.87890625 18.609375 C0.85459336 20.06096643 0.83075039 21.51256581 0.80735779 22.96417236 C0.74463306 26.77827015 0.67553379 30.59222674 0.60510254 34.40618896 C0.53431398 38.30067534 0.46956006 42.19526155 0.40429688 46.08984375 C0.27543429 53.72667295 0.13983664 61.36336303 0 69 C-0.33 69 -0.66 69 -1 69 C-1.33 51.51 -1.66 34.02 -2 16 C-2.66 16 -3.32 16 -4 16 C-4.0272415 14.58344207 -4.04650467 13.16672955 -4.0625 11.75 C-4.07410156 10.96109375 -4.08570313 10.1721875 -4.09765625 9.359375 C-4.00385306 7.09308998 -3.63241063 5.1711105 -3 3 C-2.34 3 -1.68 3 -1 3 C-0.67 2.01 -0.34 1.02 0 0 Z " fill="#997876" transform="translate(175,127)"/>
<path d="M0 0 C2.125 0.9375 2.125 0.9375 4 2 C3.71125 2.70125 3.4225 3.4025 3.125 4.125 C2.75375 5.07375 2.3825 6.0225 2 7 C1.608125 7.9075 1.21625 8.815 0.8125 9.75 C-0.6688157 15.67526279 0.34588997 21.51483928 3 27 C-1.37271213 22.97250199 -3.72918627 20.03072422 -4.265625 14.02734375 C-4.26046875 13.00769531 -4.2553125 11.98804688 -4.25 10.9375 C-4.25515625 9.91527344 -4.2603125 8.89304687 -4.265625 7.83984375 C-4.00080987 5.00865848 -3.54909225 3.36182023 -2 1 C-1.34 0.67 -0.68 0.34 0 0 Z " fill="#0F0F0F" transform="translate(242,258)"/>
<path d="M0 0 C2.56687367 3.8503105 1.83288724 5.58569763 1 10 C0.01 10 -0.98 10 -2 10 C-2 9.34 -2 8.68 -2 8 C-2.99 8 -3.98 8 -5 8 C-5.33 8.99 -5.66 9.98 -6 11 C-8.24197388 9.22510401 -8.94326323 8.37824511 -9.375 5.5 C-9 3 -9 3 -7.875 1.1875 C-5.14012639 -0.54458662 -3.16259871 -0.40373601 0 0 Z " fill="#111111" transform="translate(163,350)"/>
<path d="M0 0 C0.33 0 0.66 0 1 0 C1.02692484 2.29160319 1.04636124 4.58329546 1.0625 6.875 C1.07410156 8.15117187 1.08570313 9.42734375 1.09765625 10.7421875 C1 14 1 14 0 16 C-1.66611905 16.042721 -3.33382885 16.04063832 -5 16 C-6 15 -6 15 -6.09765625 11.83984375 C-6.08025391 9.90818359 -6.08025391 9.90818359 -6.0625 7.9375 C-6.05347656 6.64714844 -6.04445312 5.35679687 -6.03515625 4.02734375 C-6.02355469 3.02832031 -6.01195312 2.02929688 -6 1 C-4.02 1.99 -4.02 1.99 -2 3 C-1.34 2.01 -0.68 1.02 0 0 Z M-3 9 C-2 12 -2 12 -2 12 Z " fill="#1F1F1F" transform="translate(234,397)"/>
<path d="M0 0 C3 0.25 3 0.25 5 2.25 C5.125 5.875 5.125 5.875 5 9.25 C3.02 10.24 3.02 10.24 1 11.25 C1.33 10.26 1.66 9.27 2 8.25 C-1.0745356 9.0263932 -1.0745356 9.0263932 -3 11.25 C-4.5625 9.5625 -4.5625 9.5625 -6 7.25 C-5.67747519 2.7346526 -4.81889451 0.40157454 0 0 Z " fill="#0D0D0D" transform="translate(355,349.75)"/>
<path d="M0 0 C1.8125 1.1875 1.8125 1.1875 3 3 C3.4375 5.5 3.4375 5.5 3 8 C1 9.8125 1 9.8125 -1 11 C-1 10.01 -1 9.02 -1 8 C-1.99 8 -2.98 8 -4 8 C-4.33 8.99 -4.66 9.98 -5 11 C-6.5625 9.9375 -6.5625 9.9375 -8 8 C-7.8125 4.375 -7.8125 4.375 -7 1 C-4.45132831 -0.27433584 -2.82594567 -0.27570202 0 0 Z " fill="#0D0D0D" transform="translate(135,350)"/>
<path d="M0 0 C0.66 0 1.32 0 2 0 C2 5.61 2 11.22 2 17 C1.01 17 0.02 17 -1 17 C-1.33 16.34 -1.66 15.68 -2 15 C-4.38084878 14.15701426 -4.38084878 14.15701426 -7 14 C-7.99 14.66 -8.98 15.32 -10 16 C-12.6875 15.625 -12.6875 15.625 -15 15 C-15.33 14.01 -15.66 13.02 -16 12 C-11.05 11.67 -6.1 11.34 -1 11 C-1.33 8.03 -1.66 5.06 -2 2 C-1.34 2 -0.68 2 0 2 C0 1.34 0 0.68 0 0 Z " fill="#020202" transform="translate(394,346)"/>
<path d="M0 0 C0.99 0.103125 1.98 0.20625 3 0.3125 C5.56687367 4.1628105 4.83288724 5.89819763 4 10.3125 C1 10.3125 1 10.3125 -2 8.3125 C-2.33 9.3025 -2.66 10.2925 -3 11.3125 C-5 9.3125 -5 9.3125 -5.25 5.8125 C-4.93382655 1.38607168 -4.44897929 0.46343534 0 0 Z " fill="#080808" transform="translate(303,349.6875)"/>
<path d="M0 0 C0.66 0.33 1.32 0.66 2 1 C2 9.25 2 17.5 2 26 C1.01 25.67 0.02 25.34 -1 25 C-1.02886984 21.02084841 -1.04675406 17.04172347 -1.0625 13.0625 C-1.07087891 11.92619141 -1.07925781 10.78988281 -1.08789062 9.61914062 C-1.09111328 8.53955078 -1.09433594 7.45996094 -1.09765625 6.34765625 C-1.10289307 5.34742432 -1.10812988 4.34719238 -1.11352539 3.31665039 C-1 1 -1 1 0 0 Z " fill="#292929" transform="translate(172,142)"/>
<path d="M0 0 C0.78375 0.04125 1.5675 0.0825 2.375 0.125 C3.63737731 2.64975462 3.47356404 4.43700466 3.4375 7.25 C3.42847656 8.16007812 3.41945313 9.07015625 3.41015625 10.0078125 C3.39855469 10.70648438 3.38695312 11.40515625 3.375 12.125 C2.385 11.795 1.395 11.465 0.375 11.125 C0.375 9.805 0.375 8.485 0.375 7.125 C-1.275 7.455 -2.925 7.785 -4.625 8.125 C-4.75 5.25 -4.75 5.25 -4.625 2.125 C-2.625 0.125 -2.625 0.125 0 0 Z " fill="#060606" transform="translate(329.625,349.875)"/>
<path d="M0 0 C1.48046875 1.1015625 1.48046875 1.1015625 3 3 C3.36328125 5.9609375 3.36328125 5.9609375 3.3125 9.375 C3.30863281 10.49648437 3.30476563 11.61796875 3.30078125 12.7734375 C3.00825742 15.91142036 2.33267928 18.16473811 1 21 C0.34 21 -0.32 21 -1 21 C-1.02888146 17.68751813 -1.04675799 14.37506833 -1.0625 11.0625 C-1.07087891 10.11697266 -1.07925781 9.17144531 -1.08789062 8.19726562 C-1.09111328 7.29814453 -1.09433594 6.39902344 -1.09765625 5.47265625 C-1.10289307 4.64000244 -1.10812988 3.80734863 -1.11352539 2.94946289 C-1 1 -1 1 0 0 Z " fill="#111111" transform="translate(347,226)"/>
<path d="M0 0 C3.96829588 3.28410693 5.92405959 7.02676435 7 12 C7.2312486 16.01486932 7.1807209 19.98397996 7 24 C5.02 24.33 3.04 24.66 1 25 C1.33 24.236875 1.66 23.47375 2 22.6875 C3.68814161 16.46247783 4.0258221 10.4363275 1.5 4.4375 C1.005 3.633125 0.51 2.82875 0 2 C0 1.34 0 0.68 0 0 Z " fill="#242121" transform="translate(280,84)"/>
<path d="M0 0 C3.375 -0.125 3.375 -0.125 7 0 C7.66 0.66 8.32 1.32 9 2 C8.75 4.5625 8.75 4.5625 8 7 C5.29120665 8.35439668 2.99066732 8.06501451 0 8 C0 5.36 0 2.72 0 0 Z " fill="#030303" transform="translate(202,394)"/>
<path d="M0 0 C0.33 0 0.66 0 1 0 C1.08706892 3.27066566 1.14041241 6.54103365 1.1875 9.8125 C1.21263672 10.74126953 1.23777344 11.67003906 1.26367188 12.62695312 C1.27333984 13.51962891 1.28300781 14.41230469 1.29296875 15.33203125 C1.3086792 16.15421143 1.32438965 16.9763916 1.34057617 17.82348633 C0.92566921 20.47502434 0.04470249 21.33263592 -2 23 C-2.05789006 19.54173658 -2.09355821 16.08359707 -2.125 12.625 C-2.14175781 11.64015625 -2.15851563 10.6553125 -2.17578125 9.640625 C-2.18222656 8.69960938 -2.18867187 7.75859375 -2.1953125 6.7890625 C-2.20578613 5.91975098 -2.21625977 5.05043945 -2.22705078 4.15478516 C-2 2 -2 2 0 0 Z " fill="#1D1D1D" transform="translate(82,337)"/>
<path d="M0 0 C0.99 0.33 1.98 0.66 3 1 C3.33 2.98 3.66 4.96 4 7 C4.680625 5.5459375 4.680625 5.5459375 5.375 4.0625 C7 1 7 1 9 0 C7.68 5.94 6.36 11.88 5 18 C2.35869909 15.35869909 2.17598812 13.19121892 1.375 9.5625 C1.11460937 8.40878906 0.85421875 7.25507813 0.5859375 6.06640625 C0 3 0 3 0 0 Z " fill="#131313" transform="translate(256,337)"/>
<path d="M0 0 C0.99 0.99 1.98 1.98 3 3 C2.34 5.31 1.68 7.62 1 10 C0.34 10 -0.32 10 -1 10 C-1.66 9.01 -2.32 8.02 -3 7 C-5.17897492 5.99194445 -5.17897492 5.99194445 -7.625 5.3125 C-8.44226563 5.06113281 -9.25953125 4.80976563 -10.1015625 4.55078125 C-10.72804688 4.36902344 -11.35453125 4.18726563 -12 4 C-11.67 3.01 -11.34 2.02 -11 1 C-9.35 1.33 -7.7 1.66 -6 2 C-6 2.66 -6 3.32 -6 4 C-2.27385847 2.88145414 -2.27385847 2.88145414 0 0 Z " fill="#0B0B0B" transform="translate(431,348)"/>
<path d="M0 0 C4 3 4 3 4.75 5.1875 C4.8325 5.785625 4.915 6.38375 5 7 C5.66 5.02 6.32 3.04 7 1 C7.66 1 8.32 1 9 1 C8.68806536 2.72926874 8.37542638 4.45841044 8.0625 6.1875 C7.88847656 7.15042969 7.71445312 8.11335938 7.53515625 9.10546875 C7.0476265 11.74239972 6.53328895 14.3719905 6 17 C5.34 17 4.68 17 4 17 C2.68 11.39 1.36 5.78 0 0 Z " fill="#313131" transform="translate(273,337)"/>
<path d="M0 0 C0.66 0.33 1.32 0.66 2 1 C1.5359375 1.928125 1.5359375 1.928125 1.0625 2.875 C-0.4039278 7.18802294 -0.66619026 11.4759996 -1 16 C-1.66 16 -2.32 16 -3 16 C-3.33 16.66 -3.66 17.32 -4 18 C-5.43680971 11.86090397 -4.32637691 7.79622721 -2 2 C-1.34 2 -0.68 2 0 2 C0 1.34 0 0.68 0 0 Z " fill="#282727" transform="translate(238,86)"/>
<path d="M0 0 C0.33 0 0.66 0 1 0 C1 5.28 1 10.56 1 16 C0.01 16.33 -0.98 16.66 -2 17 C-2.05398987 14.72942623 -2.09278742 12.45848712 -2.125 10.1875 C-2.14820313 8.92292969 -2.17140625 7.65835937 -2.1953125 6.35546875 C-2 3 -2 3 0 0 Z " fill="#1F1F1F" transform="translate(193,389)"/>
<path d="M0 0 C4 4 4 4 4.390625 6.359375 C4.34421875 7.14828125 4.2978125 7.9371875 4.25 8.75 C4.21390625 9.54921875 4.1778125 10.3484375 4.140625 11.171875 C4.09421875 11.77515625 4.0478125 12.3784375 4 13 C2.68 12.67 1.36 12.34 0 12 C0 8.04 0 4.08 0 0 Z " fill="#070707" transform="translate(367,336)"/>
<path d="M0 0 C0.99 0.33 1.98 0.66 3 1 C3.02694851 2.95825873 3.04637218 4.91662226 3.0625 6.875 C3.07410156 7.96554687 3.08570313 9.05609375 3.09765625 10.1796875 C3 13 3 13 2 15 C1.34 15 0.68 15 0 15 C0 10.05 0 5.1 0 0 Z " fill="#242424" transform="translate(171,270)"/>
<path d="M0 0 C1.32 0 2.64 0 4 0 C3.9071875 1.4540625 3.9071875 1.4540625 3.8125 2.9375 C3.78374119 7.61559946 5.35228793 11.67475582 7 16 C3.6217696 12.888472 1.20366125 10.48637374 0 6 C-0.125 2.6875 -0.125 2.6875 0 0 Z " fill="#1E1D1D" transform="translate(238,269)"/>
<path d="M0 0 C1.13732426 3.40401948 0.83989957 5.77456664 0.0625 9.25 C-0.13214844 10.14203125 -0.32679688 11.0340625 -0.52734375 11.953125 C-0.68332031 12.62859375 -0.83929688 13.3040625 -1 14 C-1.99 13.67 -2.98 13.34 -4 13 C-4.08004482 9.4780279 -4.04005702 6.38018531 -3 3 C-2.34 3 -1.68 3 -1 3 C-0.67 2.01 -0.34 1.02 0 0 Z " fill="#3F3838" transform="translate(175,127)"/>
<path d="M0 0 C4.95726496 4.95726496 4.95726496 4.95726496 5.09765625 8.3828125 C5.08605469 9.28773438 5.07445312 10.19265625 5.0625 11.125 C5.05347656 12.03507812 5.04445313 12.94515625 5.03515625 13.8828125 C5.02355469 14.58148438 5.01195312 15.28015625 5 16 C4.67 15.01 4.34 14.02 4 13 C3.01 12.67 2.02 12.34 1 12 C0.67 8.04 0.34 4.08 0 0 Z " fill="#484848" transform="translate(318,399)"/>
<path d="M0 0 C0.66 0.33 1.32 0.66 2 1 C2 4.96 2 8.92 2 13 C1.34 13 0.68 13 0 13 C-0.33 13.66 -0.66 14.32 -1 15 C-1.02693575 12.87506859 -1.04636628 10.75004088 -1.0625 8.625 C-1.07410156 7.44164062 -1.08570313 6.25828125 -1.09765625 5.0390625 C-1 2 -1 2 0 0 Z " fill="#080808" transform="translate(192,404)"/>
<path d="M0 0 C0.928125 0.2784375 0.928125 0.2784375 1.875 0.5625 C4.04160178 1.23686176 4.04160178 1.23686176 6 0 C7.125 4.75 7.125 4.75 6 7 C4.33388095 7.042721 2.66617115 7.04063832 1 7 C0 6 0 6 -0.0625 2.9375 C-0.041875 1.968125 -0.02125 0.99875 0 0 Z " fill="#060606" transform="translate(228,406)"/>
<path d="M0 0 C0.66 0 1.32 0 2 0 C2 4.95 2 9.9 2 15 C0 14 0 14 -1 11 C-1.1328125 9.0625 -1.1328125 9.0625 -1.125 7 C-1.12757813 6.319375 -1.13015625 5.63875 -1.1328125 4.9375 C-1 3 -1 3 0 0 Z " fill="#272727" transform="translate(172,237)"/>
<path d="M0 0 C0 3.96 0 7.92 0 12 C-0.99 12 -1.98 12 -3 12 C-4.35 4.63636364 -4.35 4.63636364 -2.625 1.5 C-1 0 -1 0 0 0 Z " fill="#151515" transform="translate(201,345)"/>
<path d="M0 0 C3 2 3 2 3.8125 5.4375 C4 9 4 9 2 12 C1.34 11.67 0.68 11.34 0 11 C0 7.37 0 3.74 0 0 Z " fill="#191919" transform="translate(172,336)"/>
<path d="M0 0 C2 2 2 2 2 4 C2.66 3.34 3.32 2.68 4 2 C4 4.64 4 7.28 4 10 C3.01 10 2.02 10 1 10 C0.67 10.66 0.34 11.32 0 12 C-1.31157516 9.37684968 -0.89649988 7.76966564 -0.5625 4.875 C-0.46066406 3.96492188 -0.35882813 3.05484375 -0.25390625 2.1171875 C-0.17011719 1.41851562 -0.08632812 0.71984375 0 0 Z " fill="#060606" transform="translate(208,359)"/>
<path d="M0 0 C0.66 0.33 1.32 0.66 2 1 C-1.63 4.63 -5.26 8.26 -9 12 C-9.66 11.34 -10.32 10.68 -11 10 C-7.50640535 6.40365256 -3.88901869 3.16548033 0 0 Z " fill="#E6D3D2" transform="translate(136,189)"/>
<path d="M0 0 C0.28571429 8.57142857 0.28571429 8.57142857 -2 12 C-2 10.68 -2 9.36 -2 8 C-2.66 8 -3.32 8 -4 8 C-3.74438677 5.6568787 -3.40729228 3.32156597 -3 1 C-1 0 -1 0 0 0 Z " fill="#202020" transform="translate(287,388)"/>
<path d="M0 0 C3.63 0 7.26 0 11 0 C11 0.66 11 1.32 11 2 C8.5595659 3.53656962 7.29255898 4.02089707 4.375 3.8125 C2 3 2 3 0 0 Z " fill="#0F0F0F" transform="translate(182,358)"/>
<path d="M0 0 C0.66 0.33 1.32 0.66 2 1 C2 2.65 2 4.3 2 6 C0.02 6.99 0.02 6.99 -2 8 C-2.66 7.34 -3.32 6.68 -4 6 C-3.8125 4 -3.8125 4 -3 2 C-2.01 1.34 -1.02 0.68 0 0 Z " fill="#030303" transform="translate(284,107)"/>
<path d="M0 0 C1.65 1.32 3.3 2.64 5 4 C4.34 5.65 3.68 7.3 3 9 C2.34 8.67 1.68 8.34 1 8 C0.40644386 5.35139573 0.25790731 2.70802678 0 0 Z M5 2 C5.99 2.495 5.99 2.495 7 3 C6.01 3.495 6.01 3.495 5 4 C5 3.34 5 2.68 5 2 Z " fill="#262626" transform="translate(224,358)"/>
<path d="M0 0 C3.3 0 6.6 0 10 0 C8.3125 2.0625 8.3125 2.0625 6 4 C3.25 3.75 3.25 3.75 1 3 C0.67 2.01 0.34 1.02 0 0 Z " fill="#000000" transform="translate(378,358)"/>
<path d="M0 0 C0.33 0.99 0.66 1.98 1 3 C-1.97 3 -4.94 3 -8 3 C-7.67 2.01 -7.34 1.02 -7 0 C-4.3333581 -1.33332095 -2.83319697 -0.67102033 0 0 Z " fill="#343434" transform="translate(190,350)"/>
<path d="M0 0 C2.97 0.495 2.97 0.495 6 1 C6.33 1.99 6.66 2.98 7 4 C4.03 4 1.06 4 -2 4 C-1.34 2.68 -0.68 1.36 0 0 Z " fill="#2F2F2F" transform="translate(306,401)"/>
<path d="M0 0 C1.485 0.99 1.485 0.99 3 2 C3.40843923 4.71203652 3.13336867 7.2437142 3 10 C2.01 10.33 1.02 10.66 0 11 C0 7.37 0 3.74 0 0 Z " fill="#1D1D1D" transform="translate(294,389)"/>
<path d="M0 0 C0.556875 0.226875 1.11375 0.45375 1.6875 0.6875 C1.0625 2.625 1.0625 2.625 -0.3125 4.6875 C-3.4375 5.4375 -3.4375 5.4375 -6.3125 5.6875 C-6.6425 4.6975 -6.9725 3.7075 -7.3125 2.6875 C-2.88173077 -0.38942308 -2.88173077 -0.38942308 0 0 Z " fill="#1E1E1E" transform="translate(92.3125,369.3125)"/>
<path d="M0 0 C1.3609623 2.7219246 0.70366248 4.1831957 0.0625 7.125 C-0.13214844 8.03507813 -0.32679687 8.94515625 -0.52734375 9.8828125 C-0.68332031 10.58148438 -0.83929688 11.28015625 -1 12 C-1.99 11.67 -2.98 11.34 -4 11 C-3.38461538 3.49230769 -3.38461538 3.49230769 -1.4375 1 C-0.963125 0.67 -0.48875 0.34 0 0 Z " fill="#171616" transform="translate(125,200)"/>
<path d="M0 0 C0.66 0.66 1.32 1.32 2 2 C1.60495559 4.9628331 0.40182371 7.38326241 -1 10 C-2.25664978 7.09399739 -3 5.20395416 -3 2 C-2.01 2 -1.02 2 0 2 C0 1.34 0 0.68 0 0 Z " fill="#212121" transform="translate(252,356)"/>
<path d="M0 0 C0.66 0.33 1.32 0.66 2 1 C1.67 3.31 1.34 5.62 1 8 C-0.32 7.67 -1.64 7.34 -3 7 C-2.625 4.0625 -2.625 4.0625 -2 1 C-1.34 0.67 -0.68 0.34 0 0 Z " fill="#0E0E0E" transform="translate(348,289)"/>
<path d="M0 0 C5.625 -0.25 5.625 -0.25 9 2 C9 3.32 9 4.64 9 6 C8.01 5.67 7.02 5.34 6 5 C6 4.34 6 3.68 6 3 C5.195625 2.87625 4.39125 2.7525 3.5625 2.625 C2.716875 2.41875 1.87125 2.2125 1 2 C0.67 1.34 0.34 0.68 0 0 Z " fill="#070707" transform="translate(313,410)"/>
<path d="M0 0 C1.65 0.33 3.3 0.66 5 1 C5.33 1.99 5.66 2.98 6 4 C3.36 4 0.72 4 -2 4 C-1.34 2.68 -0.68 1.36 0 0 Z " fill="#292929" transform="translate(380,349)"/>
<path d="M0 0 C0.66 0.33 1.32 0.66 2 1 C2 3.31 2 5.62 2 8 C-0.475 7.01 -0.475 7.01 -3 6 C-1.125 1.125 -1.125 1.125 0 0 Z " fill="#1F1F1F" transform="translate(291,338)"/>
<path d="M0 0 C0.99 0.33 1.98 0.66 3 1 C3.1875 3.875 3.1875 3.875 3 7 C2.01 7.66 1.02 8.32 0 9 C-1.125 2.25 -1.125 2.25 0 0 Z " fill="#070707" transform="translate(121,211)"/>
<path d="M0 0 C1.84765625 0.33984375 1.84765625 0.33984375 4.0625 0.9375 C5.16271484 1.22947266 5.16271484 1.22947266 6.28515625 1.52734375 C7.13400391 1.76130859 7.13400391 1.76130859 8 2 C8 2.99 8 3.98 8 5 C5.69 4.67 3.38 4.34 1 4 C1 3.34 1 2.68 1 2 C0.34 1.67 -0.32 1.34 -1 1 C-0.67 0.67 -0.34 0.34 0 0 Z " fill="#0D0D0D" transform="translate(416,357)"/>
<path d="M0 0 C1.32 0.33 2.64 0.66 4 1 C3.67 3.31 3.34 5.62 3 8 C2.01 8 1.02 8 0 8 C0 5.36 0 2.72 0 0 Z " fill="#050505" transform="translate(172,347)"/>
<path d="M0 0 C2 2 2 2 2.1953125 3.9453125 C2.13020833 5.96354167 2.06510417 7.98177083 2 10 C1.01 9.67 0.02 9.34 -1 9 C-1.09765625 2.84765625 -1.09765625 2.84765625 -1 1 C-0.67 0.67 -0.34 0.34 0 0 Z " fill="#050505" transform="translate(172,261)"/>
<path d="M0 0 C0.99 0.33 1.98 0.66 3 1 C3 3.31 3 5.62 3 8 C2.01 8 1.02 8 0 8 C0 5.36 0 2.72 0 0 Z " fill="#101010" transform="translate(117,339)"/>
<path d="M0 0 C0.99 0.33 1.98 0.66 3 1 C3.73046875 3.06640625 3.73046875 3.06640625 4.1875 5.5625 C4.34605469 6.38878906 4.50460937 7.21507812 4.66796875 8.06640625 C4.77753906 8.70449219 4.88710938 9.34257812 5 10 C4.01 10 3.02 10 2 10 C1.34 6.7 0.68 3.4 0 0 Z " fill="#2A2A2A" transform="translate(256,337)"/>
<path d="M0 0 C0.33 0 0.66 0 1 0 C1 2.97 1 5.94 1 9 C0.01 8.67 -0.98 8.34 -2 8 C-2.125 5.125 -2.125 5.125 -2 2 C-1.34 1.34 -0.68 0.68 0 0 Z " fill="#2B2B2B" transform="translate(164,336)"/>
<path d="M0 0 C0.66 0.33 1.32 0.66 2 1 C1.55090939 2.48199902 1.09043436 3.96055236 0.625 5.4375 C0.36976563 6.26121094 0.11453125 7.08492188 -0.1484375 7.93359375 C-1 10 -1 10 -3 11 C-2.53199289 6.94393835 -2.12046792 3.53411321 0 0 Z " fill="#1E1E1E" transform="translate(274,286)"/>
<path d="M0 0 C2.86453858 3.41016497 4.34703566 6.90694544 6 11 C3 10 3 10 1.796875 8.22265625 C1.45140625 7.50980469 1.1059375 6.79695312 0.75 6.0625 C0.39421875 5.35222656 0.0384375 4.64195312 -0.328125 3.91015625 C-0.54984375 3.27980469 -0.7715625 2.64945313 -1 2 C-0.67 1.34 -0.34 0.68 0 0 Z " fill="#222121" transform="translate(297,215)"/>
<path d="M0 0 C1.65 0 3.3 0 5 0 C2.47211993 2.79872437 0.79588866 4.45773019 -3 5 C-3.33 4.34 -3.66 3.68 -4 3 C-2.68 2.67 -1.36 2.34 0 2 C0 1.34 0 0.68 0 0 Z " fill="#000000" transform="translate(310,370)"/>
<path d="M0 0 C1.98 0.99 1.98 0.99 4 2 C3.67 3.98 3.34 5.96 3 8 C2.34 8 1.68 8 1 8 C0.67 5.36 0.34 2.72 0 0 Z " fill="#030303" transform="translate(276,346)"/>
<path d="M0 0 C0.33 0 0.66 0 1 0 C0.25 7.75 0.25 7.75 -2 10 C-2.1953125 3.9453125 -2.1953125 3.9453125 -2 2 C-1.34 1.34 -0.68 0.68 0 0 Z " fill="#494949" transform="translate(82,337)"/>
<path d="M0 0 C0.95465783 2.16967689 1.14401212 3.56328793 0.3984375 5.82421875 C-0.35870385 7.5684743 -1.17609198 9.28627131 -2 11 C-2.33 11 -2.66 11 -3 11 C-2.25 3.375 -2.25 3.375 0 0 Z " fill="#161616" transform="translate(282,270)"/>
<path d="M0 0 C0.33 0 0.66 0 1 0 C1.625 3.375 1.625 3.375 2 7 C1.34 7.66 0.68 8.32 0 9 C-0.66 9 -1.32 9 -2 9 C-2.20140476 5.37471432 -1.85776765 3.13498292 0 0 Z " fill="#0D0D0D" transform="translate(348,155)"/>
<path d="M0 0 C1.485 0.99 1.485 0.99 3 2 C3 3.32 3 4.64 3 6 C1.68 5.67 0.36 5.34 -1 5 C-0.67 3.35 -0.34 1.7 0 0 Z " fill="#181818" transform="translate(368,343)"/>
<path d="M0 0 C0.33 0 0.66 0 1 0 C1 2.97 1 5.94 1 9 C0.01 8.34 -0.98 7.68 -2 7 C-1.125 1.125 -1.125 1.125 0 0 Z " fill="#161616" transform="translate(359,336)"/>
<path d="M0 0 C0.66 1.32 1.32 2.64 2 4 C0.02 4 -1.96 4 -4 4 C-4 3.01 -4 2.02 -4 1 C-2.68 0.67 -1.36 0.34 0 0 Z " fill="#000000" transform="translate(288,423)"/>
<path d="M0 0 C2 2 2 2 2.1953125 4.1640625 C2.17210938 4.97617187 2.14890625 5.78828125 2.125 6.625 C2.10695313 7.44226563 2.08890625 8.25953125 2.0703125 9.1015625 C2.03550781 10.04128906 2.03550781 10.04128906 2 11 C0.68 11 -0.64 11 -2 11 C-1.34 10.67 -0.68 10.34 0 10 C-0.33 9.01 -0.66 8.02 -1 7 C-0.72230092 4.6593935 -0.39460023 2.32375692 0 0 Z " fill="#2B2B2B" transform="translate(119,349)"/>
<path d="M0 0 C0.66 0 1.32 0 2 0 C2 1.98 2 3.96 2 6 C1.01 6.33 0.02 6.66 -1 7 C-1.33 5.35 -1.66 3.7 -2 2 C-1.34 2 -0.68 2 0 2 C0 1.34 0 0.68 0 0 Z " fill="#141414" transform="translate(394,346)"/>
<path d="M0 0 C0.33 0 0.66 0 1 0 C1 2.31 1 4.62 1 7 C0.01 7.495 0.01 7.495 -1 8 C-1.625 5.125 -1.625 5.125 -2 2 C-1.34 1.34 -0.68 0.68 0 0 Z " fill="#232323" transform="translate(173,178)"/>
<path d="M0 0 C0.99 0.33 1.98 0.66 3 1 C3 2.98 3 4.96 3 7 C2.01 6.67 1.02 6.34 0 6 C0 4.02 0 2.04 0 0 Z " fill="#171717" transform="translate(228,398)"/>
<path d="M0 0 C0.33 0 0.66 0 1 0 C1 2.97 1 5.94 1 9 C0.34 8.67 -0.32 8.34 -1 8 C-1.75 5.625 -1.75 5.625 -2 3 C-1.34 2.01 -0.68 1.02 0 0 Z " fill="#020202" transform="translate(173,243)"/>
<path d="M0 0 C0.99 0 1.98 0 3 0 C2.67 2.31 2.34 4.62 2 7 C1.34 6.67 0.68 6.34 0 6 C0 4.02 0 2.04 0 0 Z " fill="#0E0E0E" transform="translate(284,96)"/>
<path d="" fill="#FFFFFF" transform="translate(0,0)"/>
<path d="" fill="#FFFFFF" transform="translate(0,0)"/>
</svg>
